<?xml version="1.0" encoding="UTF-8"?>
<!DOCTYPE svg PUBLIC "-//W3C//DTD SVG 1.1//EN" "http://www.w3.org/Graphics/SVG/1.1/DTD/svg11.dtd">
<!-- Creator: CorelDRAW X8 -->
<svg xmlns="http://www.w3.org/2000/svg" xml:space="preserve" width="420mm" height="297mm" version="1.1" style="shape-rendering:geometricPrecision; text-rendering:geometricPrecision; image-rendering:optimizeQuality; fill-rule:evenodd; clip-rule:evenodd"
viewBox="0 0 42000 29700"
 xmlns:xlink="http://www.w3.org/1999/xlink">
 <defs>
  <style type="text/css">
   <![CDATA[
    .str0 {stroke:black;stroke-width:7.62}
    .fil0 {fill:none}
    .fil1 {fill:red;fill-rule:nonzero}
   ]]>
  </style>
 </defs>
 <g id="Layer_x0020_1">
  <metadata id="CorelCorpID_0Corel-Layer"/>
  <rect class="fil0 str0" x="7150" y="7150" width="26000" height="15200" rx="387" ry="347"/>
  <circle class="fil0 str0" cx="7750" cy="7750" r="275"/>
  <circle class="fil0 str0" cx="7750" cy="21750" r="275"/>
  <circle class="fil0 str0" cx="32550" cy="7750" r="275"/>
  <circle class="fil0 str0" cx="32550" cy="21750" r="275"/>
  <circle class="fil0 str0" cx="25249" cy="13002" r="500"/>
  <circle class="fil0 str0" cx="23748" cy="13002" r="500"/>
  <circle class="fil0 str0" cx="22249" cy="13002" r="500"/>
  <circle class="fil0 str0" cx="23748" cy="15001" r="500"/>
  <circle class="fil0 str0" cx="25249" cy="15001" r="500"/>
  <circle class="fil0 str0" cx="28248" cy="17251" r="500"/>
  <circle class="fil0 str0" cx="26750" cy="17251" r="500"/>
  <circle class="fil0 str0" cx="25249" cy="17251" r="500"/>
  <circle class="fil0 str0" cx="23748" cy="17251" r="500"/>
  <circle class="fil0 str0" cx="19235" cy="13010" r="500"/>
  <circle class="fil0 str0" cx="17736" cy="13010" r="500"/>
  <circle class="fil0 str0" cx="16235" cy="13010" r="500"/>
  <circle class="fil0 str0" cx="14734" cy="13010" r="500"/>
  <circle class="fil0 str0" cx="26749" cy="20251" r="500"/>
  <circle class="fil0 str0" cx="25250" cy="20251" r="500"/>
  <circle class="fil0 str0" cx="23749" cy="20251" r="500"/>
  <circle class="fil0 str0" cx="22248" cy="20251" r="500"/>
  <circle class="fil0 str0" cx="22249" cy="17251" r="500"/>
  <circle class="fil0 str0" cx="19750" cy="18750" r="500"/>
  <circle class="fil0 str0" cx="16249" cy="15001" r="500"/>
  <circle class="fil0 str0" cx="17748" cy="15001" r="500"/>
  <circle class="fil0 str0" cx="16249" cy="17251" r="500"/>
  <circle class="fil0 str0" cx="16999" cy="18750" r="500"/>
  <circle class="fil0 str0" cx="15500" cy="18750" r="500"/>
  <circle class="fil0 str0" cx="16249" cy="20251" r="500"/>
  <circle class="fil0 str0" cx="13252" cy="15001" r="500"/>
  <circle class="fil0 str0" cx="11751" cy="15001" r="500"/>
  <circle class="fil0 str0" cx="10250" cy="15001" r="500"/>
  <circle class="fil0 str0" cx="11751" cy="13000" r="500"/>
  <circle class="fil0 str0" cx="10250" cy="13000" r="500"/>
  <rect class="fil0 str0" x="10675" y="8610" width="7150" height="2450"/>
  <circle class="fil0 str0" cx="10501" cy="8227" r="160"/>
  <circle class="fil0 str0" cx="10501" cy="11323" r="160"/>
  <circle class="fil0 str0" cx="9252" cy="9748" r="160"/>
  <circle class="fil0 str0" cx="18000" cy="8227" r="160"/>
  <circle class="fil0 str0" cx="18000" cy="11323" r="160"/>
  <circle class="fil0 str0" cx="20748" cy="13002" r="160"/>
  <circle class="fil0 str0" cx="28248" cy="9748" r="160"/>
  <circle class="fil0 str0" cx="28248" cy="21249" r="160"/>
  <circle class="fil0 str0" cx="20748" cy="21249" r="160"/>
  <circle class="fil0 str0" cx="14250" cy="21249" r="160"/>
  <circle class="fil0 str0" cx="9252" cy="21249" r="160"/>
  <circle class="fil0 str0" cx="14250" cy="16248" r="160"/>
  <circle class="fil0 str0" cx="9252" cy="16251" r="160"/>
  <circle class="fil0 str0" cx="11751" cy="18750" r="1750"/>
  <rect class="fil0 str0" x="11999" y="2110" width="8500" height="4000" rx="250" ry="264"/>
  <circle class="fil0 str0" cx="19999" cy="5658" r="160"/>
  <circle class="fil0 str0" cx="19999" cy="2562" r="160"/>
  <circle class="fil0 str0" cx="12501" cy="5658" r="160"/>
  <circle class="fil0 str0" cx="12501" cy="2562" r="160"/>
  <rect class="fil0 str0" x="13049" y="3420" width="6400" height="1500" rx="88" ry="89"/>
  <path class="fil1" d="M9718 12346l72 -292 50 0 72 292 -41 0 -17 -74 -78 0 -17 74 -41 0zm66 -108l62 0 -31 -139 -31 139z"/>
  <polygon id="1" class="fil1" points="9954,12346 9954,12054 9994,12054 9994,12312 10081,12312 10081,12346 "/>
  <path id="2" class="fil1" d="M10103 12346l71 -292 51 0 71 292 -40 0 -17 -74 -78 0 -17 74 -41 0zm65 -108l63 0 -32 -139 -31 139z"/>
  <path id="3" class="fil1" d="M10413 12221l-35 0 0 125 -40 0 0 -292 79 0c54,0 81,25 81,73l0 17c0,15 -4,27 -12,38 -8,10 -19,18 -33,22 14,3 24,10 31,20 6,10 9,24 9,42l0 50c0,5 1,11 2,17 2,6 3,10 5,13l-42 0c-1,-3 -2,-7 -3,-13 -1,-6 -2,-10 -2,-14l0 -55c0,-15 -3,-26 -9,-33 -6,-6 -17,-10 -31,-10zm4 -133l-39 0 0 99 39 0c27,0 41,-13 41,-41l0 -17c0,-27 -14,-41 -41,-41z"/>
  <polygon id="4" class="fil1" points="10550,12346 10550,12054 10612,12054 10666,12291 10720,12054 10782,12054 10782,12346 10746,12346 10746,12091 10687,12346 10645,12346 10586,12091 10586,12346 "/>
  <polygon class="fil1" points="11319,12346 11319,12054 11359,12054 11359,12176 11441,12176 11441,12054 11481,12054 11481,12346 11441,12346 11441,12210 11359,12210 11359,12346 "/>
  <path id="1" class="fil1" d="M11620 12046c27,0 48,7 61,22 13,15 20,38 20,68l0 128c0,30 -7,53 -20,68 -13,15 -34,22 -61,22 -28,0 -48,-7 -61,-22 -14,-15 -20,-38 -20,-68l0 -128c0,-30 6,-53 20,-68 13,-15 33,-22 61,-22zm0 34c-14,0 -25,4 -31,14 -7,9 -10,23 -10,42l0 128c0,19 3,33 10,42 6,10 17,14 31,14 14,0 24,-4 31,-14 6,-9 10,-23 10,-42l0 -128c0,-19 -4,-33 -10,-42 -7,-10 -17,-14 -31,-14z"/>
  <polygon id="2" class="fil1" points="11758,12346 11758,12054 11820,12054 11874,12291 11929,12054 11990,12054 11990,12346 11954,12346 11954,12091 11896,12346 11853,12346 11795,12091 11795,12346 "/>
  <polygon id="3" class="fil1" points="12048,12346 12048,12054 12183,12054 12183,12088 12088,12088 12088,12176 12179,12176 12179,12210 12088,12210 12088,12312 12183,12312 12183,12346 "/>
  <path class="fil1" d="M14433 12341l72 -291 51 0 71 291 -41 0 -17 -74 -78 0 -17 74 -41 0zm66 -108l63 0 -32 -139 -31 139z"/>
  <polygon id="1" class="fil1" points="14725,12341 14725,12084 14653,12084 14653,12050 14832,12050 14832,12084 14765,12084 14765,12341 "/>
  <path id="2" class="fil1" d="M14954 12075c-14,0 -25,5 -31,14 -7,9 -10,23 -10,43l0 127c0,19 3,33 10,43 6,9 17,14 31,14 14,0 24,-5 31,-14 6,-10 10,-24 10,-43l0 -13 40 0 0 13c0,30 -7,53 -20,68 -13,15 -34,22 -61,22 -28,0 -48,-7 -61,-22 -14,-15 -20,-37 -20,-68l0 -127c0,-31 6,-54 20,-69 13,-14 33,-22 61,-22 27,0 48,8 61,22 13,15 20,38 20,69l0 4 -40 0 0 -4c0,-20 -4,-34 -10,-43 -7,-9 -17,-14 -31,-14z"/>
  <path class="fil1" d="M15859 12337l72 -292 51 0 71 292 -41 0 -17 -74 -78 0 -17 74 -41 0zm66 -108l63 0 -32 -139 -31 139z"/>
  <path id="1" class="fil1" d="M16095 12045l40 0 0 210c0,19 3,33 10,42 7,10 17,14 31,14 14,0 24,-4 31,-14 7,-9 10,-23 10,-42l0 -210 40 0 0 210c0,30 -7,53 -20,68 -13,15 -33,22 -61,22 -27,0 -48,-7 -61,-22 -13,-15 -20,-38 -20,-68l0 -210z"/>
  <polygon id="2" class="fil1" points="16349,12045 16396,12147 16443,12045 16487,12045 16418,12185 16494,12337 16449,12337 16396,12223 16342,12337 16298,12337 16374,12185 16304,12045 "/>
  <polygon id="3" class="fil1" points="16602,12337 16602,12088 16547,12132 16547,12093 16606,12045 16640,12045 16640,12337 "/>
  <path class="fil1" d="M17338 12341l71 -291 51 0 71 291 -40 0 -17 -74 -78 0 -17 74 -41 0zm65 -108l63 0 -31 -139 -32 139z"/>
  <path id="1" class="fil1" d="M17573 12050l40 0 0 209c0,19 4,33 10,43 7,9 17,14 31,14 14,0 25,-5 31,-14 7,-10 10,-24 10,-43l0 -209 40 0 0 209c0,30 -6,53 -20,68 -13,15 -33,22 -61,22 -27,0 -48,-7 -61,-22 -13,-15 -20,-37 -20,-68l0 -209z"/>
  <polygon id="2" class="fil1" points="17827,12050 17874,12151 17921,12050 17966,12050 17896,12189 17972,12341 17927,12341 17874,12227 17821,12341 17776,12341 17852,12189 17783,12050 "/>
  <path id="3" class="fil1" d="M18082 12041c24,0 43,7 57,21 13,13 20,33 20,59 0,19 -5,38 -13,57 -8,19 -21,40 -38,61l-57 72 108 0 0 30 -154 0 0 -30 84 -105c11,-14 19,-28 25,-41 5,-14 7,-28 7,-44 0,-33 -13,-49 -39,-49 -26,0 -40,17 -40,51l0 16 -37 0 0 -16c0,-26 7,-47 20,-61 13,-14 32,-21 57,-21z"/>
  <path class="fil1" d="M18824 12341l72 -291 50 0 72 291 -41 0 -17 -74 -78 0 -17 74 -41 0zm66 -108l62 0 -31 -139 -31 139z"/>
  <path id="1" class="fil1" d="M19060 12050l40 0 0 209c0,19 3,33 10,43 6,9 17,14 31,14 14,0 24,-5 31,-14 6,-10 10,-24 10,-43l0 -209 40 0 0 209c0,30 -7,53 -20,68 -13,15 -34,22 -61,22 -28,0 -48,-7 -61,-22 -14,-15 -20,-37 -20,-68l0 -209z"/>
  <polygon id="2" class="fil1" points="19313,12050 19360,12151 19407,12050 19452,12050 19383,12189 19458,12341 19414,12341 19360,12227 19307,12341 19263,12341 19338,12189 19269,12050 "/>
  <path id="3" class="fil1" d="M19568 12041c23,0 41,7 54,20 14,13 21,31 21,54l0 12c0,16 -3,29 -9,39 -6,11 -14,18 -25,23 24,10 37,33 37,69l0 9c0,26 -7,47 -21,61 -13,14 -33,21 -57,21 -24,0 -43,-7 -57,-21 -13,-14 -20,-34 -20,-61l0 -13 37 0 0 13c0,35 13,52 40,52 27,0 41,-17 41,-52l0 -9c0,-36 -14,-54 -41,-54l-18 0 0 -30 18 0c12,0 22,-4 28,-12 6,-8 10,-20 10,-35l0 -12c0,-14 -4,-24 -10,-32 -7,-8 -16,-11 -28,-11 -11,0 -20,3 -27,11 -7,8 -10,18 -10,32l0 14 -37 0 0 -14c0,-23 6,-41 20,-54 14,-13 32,-20 54,-20z"/>
  <polygon class="fil1" points="15780,14352 15780,14060 15915,14060 15915,14094 15820,14094 15820,14182 15911,14182 15911,14216 15820,14216 15820,14352 "/>
  <polygon id="1" class="fil1" points="15953,14352 15953,14060 15993,14060 15993,14318 16080,14318 16080,14352 "/>
  <path id="2" class="fil1" d="M16198 14052c28,0 48,7 61,22 14,15 20,38 20,68l0 127c0,31 -6,54 -20,69 -13,15 -33,22 -61,22 -27,0 -48,-7 -61,-22 -13,-15 -20,-38 -20,-69l0 -127c0,-30 7,-53 20,-68 13,-15 34,-22 61,-22zm0 34c-14,0 -24,4 -31,14 -6,9 -10,23 -10,42l0 127c0,20 4,34 10,43 7,9 17,14 31,14 14,0 25,-5 31,-14 7,-9 10,-23 10,-43l0 -127c0,-19 -3,-33 -10,-42 -6,-10 -17,-14 -31,-14z"/>
  <path id="3" class="fil1" d="M16418 14052c28,0 48,7 61,22 13,15 20,38 20,68l0 127c0,31 -7,54 -20,69 -13,15 -33,22 -61,22 -27,0 -48,-7 -61,-22 -13,-15 -20,-38 -20,-69l0 -127c0,-30 7,-53 20,-68 13,-15 34,-22 61,-22zm0 34c-14,0 -24,4 -31,14 -7,9 -10,23 -10,42l0 127c0,20 3,34 10,43 7,9 17,14 31,14 14,0 24,-5 31,-14 7,-9 10,-23 10,-43l0 -127c0,-19 -3,-33 -10,-42 -7,-10 -17,-14 -31,-14z"/>
  <path id="4" class="fil1" d="M16638 14094l-41 0 0 224 41 0c14,0 24,-5 31,-14 6,-9 10,-24 10,-43l0 -110c0,-19 -4,-34 -10,-43 -7,-9 -17,-14 -31,-14zm0 -34c27,0 48,8 61,23 13,14 20,37 20,68l0 110c0,31 -7,53 -20,68 -13,15 -34,23 -61,23l-81 0 0 -292 81 0z"/>
  <polygon class="fil1" points="17373,14352 17373,14060 17435,14060 17489,14297 17543,14060 17605,14060 17605,14352 17569,14352 17569,14097 17510,14352 17468,14352 17409,14097 17409,14352 "/>
  <polygon id="1" class="fil1" points="17661,14352 17661,14060 17701,14060 17701,14352 "/>
  <path id="2" class="fil1" d="M17830 14052c52,0 78,25 78,76l0 16 -40 0 0 -16c0,-28 -13,-42 -38,-42 -12,0 -21,3 -28,10 -7,7 -10,16 -10,28l0 11c0,17 9,30 26,40l53 30c13,7 23,17 29,28 7,11 11,23 11,36l0 11c0,53 -27,80 -81,80 -54,0 -81,-27 -81,-80l0 -23 40 0 0 23c0,15 3,27 10,34 7,8 18,12 31,12 13,0 24,-4 31,-12 6,-7 10,-19 10,-34l0 -11c0,-13 -7,-24 -22,-33l-51 -28c-16,-10 -28,-20 -35,-31 -7,-12 -11,-25 -11,-42l0 -11c0,-23 7,-41 21,-53 13,-13 32,-19 57,-19z"/>
  <polygon id="3" class="fil1" points="18017,14352 18017,14094 17945,14094 17945,14060 18123,14060 18123,14094 18057,14094 18057,14352 "/>
  <path class="fil1" d="M9855 14227l-34 0 0 125 -40 0 0 -292 78 0c54,0 81,25 81,73l0 17c0,15 -4,27 -12,38 -8,10 -19,18 -33,22 14,3 25,10 31,20 7,10 10,24 10,42l0 50c0,5 1,10 2,17 1,6 3,10 4,13l-41 0c-1,-3 -2,-7 -3,-13 -1,-6 -2,-11 -2,-14l0 -55c0,-15 -3,-26 -10,-33 -6,-7 -16,-10 -31,-10zm4 -133l-38 0 0 99 38 0c28,0 41,-14 41,-41l0 -17c0,-27 -13,-41 -41,-41z"/>
  <polygon id="1" class="fil1" points="9993,14352 9993,14060 10127,14060 10127,14094 10032,14094 10032,14182 10123,14182 10123,14216 10032,14216 10032,14318 10127,14318 10127,14352 "/>
  <path id="2" class="fil1" d="M10246 14052c52,0 78,25 78,76l0 16 -40 0 0 -16c0,-28 -13,-42 -38,-42 -12,0 -21,3 -28,10 -7,7 -10,16 -10,28l0 11c0,17 8,30 26,40l53 30c12,7 22,17 29,28 7,11 11,23 11,36l0 11c0,53 -27,80 -81,80 -54,0 -81,-27 -81,-80l0 -23 40 0 0 23c0,15 3,27 10,34 7,8 17,12 31,12 13,0 23,-4 30,-12 7,-7 11,-19 11,-34l0 -11c0,-13 -8,-24 -22,-33l-51 -28c-16,-10 -28,-20 -35,-31 -7,-12 -11,-25 -11,-42l0 -11c0,-23 7,-41 20,-53 14,-13 33,-19 58,-19z"/>
  <polygon id="3" class="fil1" points="10376,14352 10376,14060 10511,14060 10511,14094 10416,14094 10416,14182 10507,14182 10507,14216 10416,14216 10416,14318 10511,14318 10511,14352 "/>
  <polygon id="4" class="fil1" points="10613,14352 10613,14094 10541,14094 10541,14060 10719,14060 10719,14094 10653,14094 10653,14352 "/>
  <path class="fil1" d="M11525 14223l-34 0 0 124 -40 0 0 -291 78 0c54,0 81,24 81,73l0 17c0,14 -4,27 -12,37 -8,11 -19,19 -33,23 14,3 24,10 31,20 7,10 10,24 10,42l0 50c0,5 0,10 2,16 1,7 3,11 4,13l-41 0c-1,-2 -2,-6 -3,-12 -2,-6 -2,-11 -2,-14l0 -55c0,-15 -3,-26 -10,-33 -6,-7 -16,-10 -31,-10zm4 -133l-38 0 0 99 38 0c28,0 41,-14 41,-41l0 -17c0,-27 -13,-41 -41,-41z"/>
  <path id="1" class="fil1" d="M11662 14056l40 0 0 209c0,20 4,34 10,43 7,9 17,14 31,14 14,0 25,-5 31,-14 7,-9 10,-23 10,-43l0 -209 40 0 0 209c0,31 -6,54 -20,68 -13,15 -33,23 -61,23 -27,0 -47,-8 -61,-22 -13,-15 -20,-38 -20,-69l0 -209z"/>
  <polygon id="2" class="fil1" points="11882,14347 11882,14056 11945,14056 12012,14305 12012,14056 12051,14056 12051,14347 11989,14347 11922,14098 11922,14347 "/>
  <polygon class="fil1" points="12871,14352 12871,14060 12911,14060 12911,14182 12993,14182 12993,14060 13033,14060 13033,14352 12993,14352 12993,14216 12911,14216 12911,14352 "/>
  <path id="1" class="fil1" d="M13172 14052c27,0 47,7 61,22 13,15 19,38 19,68l0 127c0,31 -6,54 -19,69 -14,15 -34,22 -61,22 -28,0 -48,-7 -61,-22 -14,-15 -20,-38 -20,-69l0 -127c0,-30 6,-53 20,-68 13,-15 33,-22 61,-22zm0 34c-14,0 -25,4 -31,14 -7,9 -10,23 -10,42l0 127c0,20 3,34 10,43 6,9 17,14 31,14 14,0 24,-5 31,-14 6,-9 10,-23 10,-43l0 -127c0,-19 -4,-33 -10,-42 -7,-10 -17,-14 -31,-14z"/>
  <polygon id="2" class="fil1" points="13310,14352 13310,14060 13350,14060 13350,14318 13437,14318 13437,14352 "/>
  <path id="3" class="fil1" d="M13556 14094l-41 0 0 224 41 0c14,0 24,-5 31,-14 7,-9 10,-24 10,-43l0 -110c0,-19 -3,-34 -10,-43 -7,-9 -17,-14 -31,-14zm0 -34c28,0 48,8 61,23 13,14 20,37 20,68l0 110c0,31 -7,53 -20,68 -13,15 -33,23 -61,23l-81 0 0 -292 81 0z"/>
  <path class="fil1" d="M23543 12084l-41 0 0 223 41 0c14,0 25,-5 31,-14 7,-9 10,-23 10,-43l0 -110c0,-19 -3,-33 -10,-43 -6,-9 -17,-13 -31,-13zm0 -34c28,0 48,7 61,22 14,15 20,38 20,68l0 110c0,31 -6,54 -20,69 -13,15 -33,22 -61,22l-81 0 0 -291 81 0z"/>
  <polygon id="1" class="fil1" points="23682,12341 23682,12050 23817,12050 23817,12084 23722,12084 23722,12172 23812,12172 23812,12206 23722,12206 23722,12307 23817,12307 23817,12341 "/>
  <path id="2" class="fil1" d="M23943 12075c-14,0 -24,5 -31,14 -6,9 -10,23 -10,43l0 127c0,19 4,33 10,43 7,9 17,14 31,14 14,0 25,-5 31,-14 7,-10 10,-24 10,-43l0 -13 40 0 0 13c0,30 -7,53 -20,68 -13,15 -33,22 -61,22 -27,0 -48,-7 -61,-22 -13,-15 -20,-37 -20,-68l0 -127c0,-31 7,-54 20,-69 13,-14 34,-22 61,-22 28,0 48,8 61,22 13,15 20,38 20,69l0 4 -40 0 0 -4c0,-20 -3,-34 -10,-43 -6,-9 -17,-14 -31,-14z"/>
  <path class="fil1" d="M21700 12041c52,0 78,26 78,77l0 15 -40 0 0 -15c0,-29 -13,-43 -38,-43 -12,0 -21,4 -28,10 -7,7 -10,17 -10,29l0 11c0,16 8,29 26,39l53 30c12,8 22,17 29,28 7,11 10,23 10,37l0 11c0,53 -27,79 -80,79 -54,0 -81,-26 -81,-79l0 -23 39 0 0 23c0,15 4,26 11,34 7,8 17,12 31,12 13,0 23,-4 30,-12 7,-8 11,-19 11,-34l0 -11c0,-14 -8,-25 -22,-33l-51 -29c-16,-9 -28,-19 -35,-31 -8,-11 -11,-25 -11,-41l0 -11c0,-23 7,-41 20,-54 14,-12 33,-19 58,-19z"/>
  <path id="1" class="fil1" d="M21900 12183c14,0 24,-4 31,-11 6,-8 10,-19 10,-35l0 -8c0,-16 -4,-27 -10,-34 -7,-8 -17,-11 -31,-11l-30 0 0 99 30 0zm-70 158l0 -291 70 0c54,0 81,26 81,79l0 8c0,53 -27,79 -81,79l-30 0 0 125 -40 0z"/>
  <polygon id="2" class="fil1" points="22025,12341 22025,12050 22064,12050 22064,12341 "/>
  <polygon id="3" class="fil1" points="22120,12341 22120,12050 22183,12050 22250,12299 22250,12050 22290,12050 22290,12341 22227,12341 22160,12092 22160,12341 "/>
  <path id="4" class="fil1" d="M22429 12084l-41 0 0 223 41 0c14,0 24,-5 31,-14 6,-9 10,-23 10,-43l0 -110c0,-19 -4,-33 -10,-43 -7,-9 -17,-13 -31,-13zm0 -34c27,0 47,7 61,22 13,15 19,38 19,68l0 110c0,31 -6,54 -19,69 -14,15 -34,22 -61,22l-81 0 0 -291 81 0z"/>
  <polygon id="5" class="fil1" points="22567,12341 22567,12050 22607,12050 22607,12307 22694,12307 22694,12341 "/>
  <polygon id="6" class="fil1" points="22732,12341 22732,12050 22867,12050 22867,12084 22772,12084 22772,12172 22863,12172 22863,12206 22772,12206 22772,12307 22867,12307 22867,12341 "/>
  <polygon class="fil1" points="25005,12341 25005,12050 25045,12050 25045,12341 "/>
  <polygon id="1" class="fil1" points="25101,12341 25101,12050 25164,12050 25230,12299 25230,12050 25270,12050 25270,12341 25208,12341 25141,12092 25141,12341 "/>
  <path id="2" class="fil1" d="M25410 12075c-15,0 -25,5 -32,14 -6,9 -10,23 -10,43l0 127c0,19 4,33 10,43 7,9 17,14 32,14 13,0 24,-5 30,-14 7,-10 10,-24 10,-43l0 -13 40 0 0 13c0,30 -6,53 -19,68 -14,15 -34,22 -61,22 -28,0 -48,-7 -62,-22 -13,-15 -20,-37 -20,-68l0 -127c0,-31 7,-54 20,-69 14,-14 34,-22 62,-22 27,0 47,8 61,22 13,15 19,38 19,69l0 4 -40 0 0 -4c0,-20 -3,-34 -9,-43 -7,-9 -17,-14 -31,-14z"/>
  <path class="fil1" d="M23548 14088l-41 0 0 224 41 0c14,0 24,-5 31,-14 6,-9 10,-24 10,-43l0 -110c0,-19 -4,-34 -10,-43 -7,-9 -17,-14 -31,-14zm0 -34c27,0 47,8 61,23 13,15 19,37 19,68l0 110c0,31 -6,53 -19,68 -14,15 -34,23 -61,23l-81 0 0 -292 81 0z"/>
  <polygon id="1" class="fil1" points="23686,14346 23686,14054 23821,14054 23821,14088 23726,14088 23726,14176 23817,14176 23817,14210 23726,14210 23726,14312 23821,14312 23821,14346 "/>
  <path id="2" class="fil1" d="M23948 14080c-14,0 -25,4 -31,14 -7,9 -10,23 -10,42l0 128c0,19 3,33 10,42 6,10 17,14 31,14 14,0 24,-4 31,-14 6,-9 10,-23 10,-42l0 -13 39 0 0 13c0,30 -6,53 -19,68 -14,15 -34,22 -61,22 -28,0 -48,-7 -62,-22 -13,-15 -19,-38 -19,-68l0 -128c0,-30 6,-53 19,-68 14,-15 34,-22 62,-22 27,0 47,7 61,22 13,15 19,38 19,68l0 5 -39 0 0 -5c0,-19 -4,-33 -10,-42 -7,-10 -17,-14 -31,-14z"/>
  <polygon class="fil1" points="25006,14347 25006,14055 25046,14055 25046,14347 "/>
  <polygon id="1" class="fil1" points="25102,14347 25102,14055 25165,14055 25231,14304 25231,14055 25271,14055 25271,14347 25209,14347 25142,14098 25142,14347 "/>
  <path id="2" class="fil1" d="M25410 14081c-14,0 -24,4 -31,14 -6,9 -10,23 -10,42l0 127c0,20 4,34 10,43 7,9 17,14 31,14 14,0 25,-5 31,-14 7,-9 10,-23 10,-43l0 -12 40 0 0 12c0,31 -6,54 -20,69 -13,15 -33,22 -61,22 -27,0 -48,-7 -61,-22 -13,-15 -20,-38 -20,-69l0 -127c0,-30 7,-53 20,-68 13,-15 34,-22 61,-22 28,0 48,7 61,22 14,15 20,38 20,68l0 4 -40 0 0 -4c0,-19 -3,-33 -10,-42 -6,-10 -17,-14 -31,-14z"/>
  <polygon class="fil1" points="21899,15150 21899,14859 22034,14859 22034,14893 21939,14893 21939,14981 22030,14981 22030,15015 21939,15015 21939,15150 "/>
  <polygon id="1" class="fil1" points="22072,15150 22072,14859 22207,14859 22207,14893 22112,14893 22112,14981 22202,14981 22202,15015 22112,15015 22112,15117 22207,15117 22207,15150 "/>
  <polygon id="2" class="fil1" points="22252,15150 22252,14859 22387,14859 22387,14893 22292,14893 22292,14981 22383,14981 22383,15015 22292,15015 22292,15117 22387,15117 22387,15150 "/>
  <path id="3" class="fil1" d="M22513 14893l-41 0 0 224 41 0c14,0 25,-5 31,-14 7,-10 10,-24 10,-43l0 -110c0,-20 -3,-34 -10,-43 -6,-9 -17,-14 -31,-14zm0 -34c28,0 48,8 61,23 14,14 20,37 20,68l0 110c0,31 -6,53 -20,68 -13,15 -33,22 -61,22l-81 0 0 -291 81 0z"/>
  <path class="fil1" d="M19011 17391l40 0 0 222c0,52 -24,78 -71,78 -46,0 -70,-26 -70,-78l0 -25 40 0 0 25c0,30 10,44 30,44 21,0 31,-14 31,-44l0 -222z"/>
  <path id="1" class="fil1" d="M19189 17383c28,0 48,7 61,22 13,15 20,38 20,68l0 128c0,30 -7,53 -20,68 -13,15 -33,22 -61,22 -27,0 -48,-7 -61,-22 -13,-15 -20,-38 -20,-68l0 -128c0,-30 7,-53 20,-68 13,-15 34,-22 61,-22zm0 34c-14,0 -24,4 -31,14 -7,9 -10,23 -10,42l0 128c0,19 3,33 10,42 7,10 17,14 31,14 14,0 24,-4 31,-14 7,-9 10,-23 10,-42l0 -128c0,-19 -3,-33 -10,-42 -6,-10 -17,-14 -31,-14z"/>
  <path id="2" class="fil1" d="M19409 17417c-14,0 -25,4 -31,14 -7,9 -10,23 -10,42l0 128c0,19 3,33 10,42 6,10 17,14 31,14 8,0 16,-1 23,-4 8,-3 14,-6 18,-10l0 -79 -26 0 0 -34 66 0 0 132c-11,9 -23,16 -38,21 -15,5 -29,8 -43,8 -28,0 -48,-7 -61,-22 -13,-15 -20,-38 -20,-68l0 -128c0,-30 7,-53 20,-68 13,-15 33,-22 61,-22 54,0 81,28 81,84l0 4 -40 0 0 -4c0,-33 -14,-50 -41,-50z"/>
  <path id="3" class="fil1" d="M19715 17383c52,0 78,25 78,76l0 16 -40 0 0 -16c0,-28 -13,-42 -38,-42 -12,0 -21,3 -28,10 -7,7 -10,16 -10,28l0 12c0,16 8,29 26,39l53 30c12,7 22,17 29,28 7,11 10,23 10,37l0 11c0,53 -26,79 -80,79 -54,0 -81,-26 -81,-79l0 -23 39 0 0 23c0,14 4,26 11,34 7,7 17,11 31,11 13,0 23,-4 30,-11 7,-8 11,-20 11,-34l0 -11c0,-14 -8,-25 -22,-34l-51 -28c-16,-9 -28,-20 -35,-31 -8,-12 -11,-25 -11,-41l0 -12c0,-23 7,-40 20,-53 14,-13 33,-19 58,-19z"/>
  <path id="4" class="fil1" d="M19915 17524c14,0 24,-3 31,-11 6,-7 10,-19 10,-34l0 -8c0,-16 -4,-27 -10,-35 -7,-7 -17,-11 -31,-11l-30 0 0 99 30 0zm-70 159l0 -292 70 0c54,0 81,27 81,80l0 8c0,53 -27,79 -81,79l-30 0 0 125 -40 0z"/>
  <polygon id="5" class="fil1" points="20041,17683 20041,17391 20176,17391 20176,17425 20081,17425 20081,17513 20172,17513 20172,17547 20081,17547 20081,17649 20176,17649 20176,17683 "/>
  <polygon id="6" class="fil1" points="20221,17683 20221,17391 20356,17391 20356,17425 20261,17425 20261,17513 20352,17513 20352,17547 20261,17547 20261,17649 20356,17649 20356,17683 "/>
  <path id="7" class="fil1" d="M20483 17425l-41 0 0 224 41 0c14,0 24,-5 31,-14 6,-9 10,-24 10,-43l0 -110c0,-19 -4,-34 -10,-43 -7,-9 -17,-14 -31,-14zm0 -34c27,0 48,8 61,23 13,15 20,37 20,68l0 110c0,31 -7,53 -20,68 -13,15 -34,23 -61,23l-81 0 0 -292 81 0z"/>
  <path class="fil1" d="M21850 16340l-41 0 0 223 41 0c14,0 24,-5 31,-14 6,-9 10,-23 10,-43l0 -110c0,-19 -4,-33 -10,-43 -7,-9 -17,-13 -31,-13zm0 -34c27,0 47,7 61,22 13,15 20,38 20,68l0 110c0,31 -7,54 -20,69 -14,15 -34,22 -61,22l-81 0 0 -291 81 0z"/>
  <polygon id="1" class="fil1" points="21987,16597 21987,16306 22027,16306 22027,16597 "/>
  <path id="2" class="fil1" d="M22066 16597l72 -291 51 0 71 291 -41 0 -17 -74 -78 0 -17 74 -41 0zm66 -107l63 0 -32 -140 -31 140z"/>
  <polygon id="3" class="fil1" points="22302,16597 22302,16306 22342,16306 22342,16563 22429,16563 22429,16597 "/>
  <polygon id="4" class="fil1" points="22595,16306 22642,16407 22689,16306 22733,16306 22664,16445 22740,16597 22695,16597 22642,16483 22588,16597 22544,16597 22620,16445 22550,16306 "/>
  <path class="fil1" d="M24861 16340l-41 0 0 223 41 0c14,0 25,-5 31,-14 7,-9 10,-23 10,-43l0 -110c0,-19 -3,-33 -10,-43 -6,-9 -17,-13 -31,-13zm0 -34c28,0 48,7 61,22 14,15 20,38 20,68l0 110c0,31 -6,54 -20,69 -13,15 -33,22 -61,22l-81 0 0 -291 81 0z"/>
  <polygon id="1" class="fil1" points="24998,16597 24998,16306 25038,16306 25038,16597 "/>
  <path id="2" class="fil1" d="M25078 16597l72 -291 50 0 72 291 -41 0 -17 -74 -78 0 -17 74 -41 0zm66 -107l62 0 -31 -140 -31 140z"/>
  <polygon id="3" class="fil1" points="25314,16597 25314,16306 25354,16306 25354,16563 25441,16563 25441,16597 "/>
  <polygon id="4" class="fil1" points="25561,16597 25561,16559 25678,16340 25565,16340 25565,16306 25719,16306 25719,16344 25602,16563 25723,16563 25723,16597 "/>
  <path class="fil1" d="M23360 16340l-41 0 0 223 41 0c14,0 24,-5 31,-14 7,-9 10,-23 10,-43l0 -110c0,-19 -3,-33 -10,-43 -6,-9 -17,-13 -31,-13zm0 -34c28,0 48,7 61,22 13,15 20,38 20,68l0 110c0,31 -7,54 -20,69 -13,15 -33,22 -61,22l-81 0 0 -291 81 0z"/>
  <polygon id="1" class="fil1" points="23497,16597 23497,16306 23537,16306 23537,16597 "/>
  <path id="2" class="fil1" d="M23577 16597l72 -291 50 0 72 291 -41 0 -17 -74 -78 0 -17 74 -41 0zm66 -107l62 0 -31 -140 -31 140z"/>
  <polygon id="3" class="fil1" points="23813,16597 23813,16306 23853,16306 23853,16563 23940,16563 23940,16597 "/>
  <polygon id="4" class="fil1" points="24093,16306 24141,16440 24188,16306 24229,16306 24161,16482 24161,16597 24121,16597 24121,16482 24052,16306 "/>
  <path class="fil1" d="M26355 16340l-41 0 0 223 41 0c14,0 24,-5 31,-14 6,-9 10,-23 10,-43l0 -110c0,-19 -4,-33 -10,-43 -7,-9 -17,-13 -31,-13zm0 -34c27,0 47,7 61,22 13,15 19,38 19,68l0 110c0,31 -6,54 -19,69 -14,15 -34,22 -61,22l-81 0 0 -291 81 0z"/>
  <polygon id="1" class="fil1" points="26492,16597 26492,16306 26532,16306 26532,16597 "/>
  <path id="2" class="fil1" d="M26571 16597l72 -291 51 0 71 291 -41 0 -17 -74 -78 0 -17 74 -41 0zm66 -107l63 0 -32 -140 -31 140z"/>
  <polygon id="3" class="fil1" points="26807,16597 26807,16306 26847,16306 26847,16563 26934,16563 26934,16597 "/>
  <path id="4" class="fil1" d="M27147 16331c-14,0 -25,5 -31,14 -7,9 -10,24 -10,43l0 127c0,19 3,33 10,43 6,9 17,14 31,14 14,0 24,-5 31,-14 6,-10 10,-24 10,-43l0 -13 40 0 0 13c0,30 -7,53 -20,68 -13,15 -34,22 -61,22 -28,0 -48,-7 -61,-22 -14,-15 -20,-37 -20,-68l0 -127c0,-31 6,-54 20,-69 13,-14 33,-22 61,-22 27,0 48,8 61,23 13,14 20,37 20,68l0 4 -40 0 0 -4c0,-19 -3,-34 -10,-43 -7,-9 -17,-14 -31,-14z"/>
  <polygon class="fil1" points="27874,16597 27874,16306 28009,16306 28009,16340 27914,16340 27914,16428 28005,16428 28005,16462 27914,16462 27914,16597 "/>
  <path id="1" class="fil1" d="M28031 16597l71 -291 51 0 72 291 -41 0 -17 -74 -78 0 -17 74 -41 0zm65 -107l63 0 -31 -140 -32 140z"/>
  <path id="2" class="fil1" d="M28340 16297c52,0 77,26 77,77l0 15 -39 0 0 -15c0,-29 -13,-43 -38,-43 -12,0 -21,4 -28,10 -7,7 -11,17 -11,29l0 11c0,16 9,29 27,39l53 30c12,8 22,17 29,28 7,11 10,23 10,37l0 11c0,53 -27,79 -80,79 -54,0 -81,-26 -81,-79l0 -23 39 0 0 23c0,15 4,26 11,34 7,8 17,12 31,12 13,0 23,-4 30,-12 7,-8 11,-19 11,-34l0 -11c0,-14 -8,-25 -22,-33l-51 -29c-16,-9 -28,-19 -35,-31 -8,-11 -11,-25 -11,-41l0 -11c0,-23 6,-41 20,-54 14,-12 33,-19 58,-19z"/>
  <polygon id="3" class="fil1" points="28526,16597 28526,16340 28454,16340 28454,16306 28633,16306 28633,16340 28566,16340 28566,16597 "/>
  <polygon class="fil1" points="21697,19597 21697,19559 21814,19339 21701,19339 21701,19305 21855,19305 21855,19343 21738,19563 21859,19563 21859,19597 "/>
  <polygon id="1" class="fil1" points="21905,19597 21905,19305 22039,19305 22039,19339 21945,19339 21945,19427 22035,19427 22035,19461 21945,19461 21945,19563 22039,19563 22039,19597 "/>
  <path id="2" class="fil1" d="M22159 19472l-34 0 0 125 -40 0 0 -292 78 0c54,0 81,25 81,73l0 17c0,15 -4,27 -12,38 -8,10 -19,18 -33,22 14,3 25,10 31,20 7,10 10,24 10,42l0 51c0,4 1,10 2,16 1,6 3,10 4,13l-41 0c-1,-3 -2,-7 -3,-13 -1,-6 -2,-10 -2,-14l0 -55c0,-15 -3,-26 -9,-33 -7,-6 -17,-10 -32,-10zm4 -133l-38 0 0 99 38 0c28,0 41,-13 41,-41l0 -17c0,-27 -13,-41 -41,-41z"/>
  <path id="3" class="fil1" d="M22378 19297c27,0 47,7 61,22 13,15 19,38 19,69l0 127c0,30 -6,53 -19,68 -14,15 -34,22 -61,22 -28,0 -48,-7 -62,-22 -13,-15 -19,-38 -19,-68l0 -127c0,-31 6,-54 19,-69 14,-15 34,-22 62,-22zm0 34c-14,0 -25,5 -31,14 -7,9 -10,23 -10,43l0 127c0,19 3,33 10,42 6,10 17,14 31,14 14,0 24,-4 31,-14 6,-9 10,-23 10,-42l0 -127c0,-20 -4,-34 -10,-43 -7,-9 -17,-14 -31,-14z"/>
  <polygon id="4" class="fil1" points="22644,19305 22691,19407 22738,19305 22783,19305 22714,19445 22789,19597 22745,19597 22691,19483 22638,19597 22593,19597 22669,19445 22600,19305 "/>
  <polygon class="fil1" points="23213,19597 23213,19559 23330,19339 23217,19339 23217,19305 23371,19305 23371,19343 23254,19563 23375,19563 23375,19597 "/>
  <polygon id="1" class="fil1" points="23421,19597 23421,19305 23556,19305 23556,19339 23461,19339 23461,19427 23551,19427 23551,19461 23461,19461 23461,19563 23556,19563 23556,19597 "/>
  <path id="2" class="fil1" d="M23676 19472l-35 0 0 125 -40 0 0 -292 79 0c54,0 81,25 81,73l0 17c0,15 -4,27 -12,38 -8,10 -19,18 -33,22 14,3 24,10 31,20 6,10 9,24 9,42l0 51c0,4 1,10 2,16 2,6 3,10 5,13l-42 0c-1,-3 -2,-7 -3,-13 -1,-6 -2,-10 -2,-14l0 -55c0,-15 -3,-26 -9,-33 -6,-6 -17,-10 -31,-10zm4 -133l-39 0 0 99 39 0c27,0 41,-13 41,-41l0 -17c0,-27 -14,-41 -41,-41z"/>
  <path id="3" class="fil1" d="M23894 19297c27,0 48,7 61,22 13,15 20,38 20,69l0 127c0,30 -7,53 -20,68 -13,15 -34,22 -61,22 -28,0 -48,-7 -61,-22 -13,-15 -20,-38 -20,-68l0 -127c0,-31 7,-54 20,-69 13,-15 33,-22 61,-22zm0 34c-14,0 -24,5 -31,14 -7,9 -10,23 -10,43l0 127c0,19 3,33 10,42 7,10 17,14 31,14 14,0 24,-4 31,-14 7,-9 10,-23 10,-42l0 -127c0,-20 -3,-34 -10,-43 -7,-9 -17,-14 -31,-14z"/>
  <polygon id="4" class="fil1" points="24148,19305 24196,19440 24244,19305 24285,19305 24216,19482 24216,19597 24176,19597 24176,19482 24107,19305 "/>
  <polygon class="fil1" points="24714,19597 24714,19559 24831,19339 24719,19339 24719,19305 24872,19305 24872,19343 24756,19563 24877,19563 24877,19597 "/>
  <polygon id="1" class="fil1" points="24922,19597 24922,19305 25057,19305 25057,19339 24962,19339 24962,19427 25053,19427 25053,19461 24962,19461 24962,19563 25057,19563 25057,19597 "/>
  <path id="2" class="fil1" d="M25177 19472l-35 0 0 125 -40 0 0 -292 79 0c54,0 81,25 81,73l0 17c0,15 -4,27 -12,38 -8,10 -19,18 -33,22 14,3 24,10 31,20 6,10 10,24 10,42l0 51c0,4 0,10 1,16 2,6 3,10 5,13l-42 0c-1,-3 -2,-7 -3,-13 -1,-6 -1,-10 -1,-14l0 -55c0,-15 -4,-26 -10,-33 -6,-6 -17,-10 -31,-10zm4 -133l-39 0 0 99 39 0c27,0 41,-13 41,-41l0 -17c0,-27 -14,-41 -41,-41z"/>
  <path id="3" class="fil1" d="M25395 19297c28,0 48,7 61,22 13,15 20,38 20,69l0 127c0,30 -7,53 -20,68 -13,15 -33,22 -61,22 -27,0 -48,-7 -61,-22 -13,-15 -20,-38 -20,-68l0 -127c0,-31 7,-54 20,-69 13,-15 34,-22 61,-22zm0 34c-14,0 -24,5 -31,14 -7,9 -10,23 -10,43l0 127c0,19 3,33 10,42 7,10 17,14 31,14 14,0 24,-4 31,-14 7,-9 10,-23 10,-42l0 -127c0,-20 -3,-34 -10,-43 -6,-9 -17,-14 -31,-14z"/>
  <polygon id="4" class="fil1" points="25616,19597 25616,19559 25733,19339 25620,19339 25620,19305 25774,19305 25774,19343 25657,19563 25778,19563 25778,19597 "/>
  <polygon class="fil1" points="26208,19597 26208,19559 26325,19339 26212,19339 26212,19305 26366,19305 26366,19343 26249,19563 26370,19563 26370,19597 "/>
  <polygon id="1" class="fil1" points="26415,19597 26415,19305 26550,19305 26550,19339 26455,19339 26455,19427 26546,19427 26546,19461 26455,19461 26455,19563 26550,19563 26550,19597 "/>
  <path id="2" class="fil1" d="M26670 19472l-34 0 0 125 -40 0 0 -292 78 0c54,0 81,25 81,73l0 17c0,15 -4,27 -12,38 -8,10 -19,18 -33,22 14,3 24,10 31,20 6,10 10,24 10,42l0 51c0,4 0,10 2,16 1,6 3,10 4,13l-41 0c-1,-3 -2,-7 -3,-13 -2,-6 -2,-10 -2,-14l0 -55c0,-15 -3,-26 -10,-33 -6,-6 -16,-10 -31,-10zm4 -133l-38 0 0 99 38 0c27,0 41,-13 41,-41l0 -17c0,-27 -14,-41 -41,-41z"/>
  <path id="3" class="fil1" d="M26888 19297c28,0 48,7 61,22 14,15 20,38 20,69l0 127c0,30 -6,53 -20,68 -13,15 -33,22 -61,22 -27,0 -48,-7 -61,-22 -13,-15 -20,-38 -20,-68l0 -127c0,-31 7,-54 20,-69 13,-15 34,-22 61,-22zm0 34c-14,0 -24,5 -31,14 -6,9 -10,23 -10,43l0 127c0,19 4,33 10,42 7,10 17,14 31,14 14,0 25,-4 31,-14 7,-9 10,-23 10,-42l0 -127c0,-20 -3,-34 -10,-43 -6,-9 -17,-14 -31,-14z"/>
  <path id="4" class="fil1" d="M27202 19331c-14,0 -24,5 -31,14 -7,9 -10,23 -10,43l0 127c0,19 3,33 10,42 7,10 17,14 31,14 14,0 24,-4 31,-14 7,-9 10,-23 10,-42l0 -13 40 0 0 13c0,30 -7,53 -20,68 -13,15 -33,22 -61,22 -27,0 -48,-7 -61,-22 -13,-15 -20,-38 -20,-68l0 -127c0,-31 7,-54 20,-69 13,-15 34,-22 61,-22 28,0 48,7 61,22 13,15 20,38 20,69l0 4 -40 0 0 -4c0,-20 -3,-34 -10,-43 -6,-9 -17,-14 -31,-14z"/>
  <path class="fil1" d="M21309 10020l-154 0 -36 -262c-2,-18 -4,-39 -6,-61 -2,-23 -4,-48 -6,-74 -4,25 -11,57 -23,96 -2,7 -4,13 -5,17l-82 284 -110 0 -83 -284c-1,-4 -2,-10 -5,-17 -11,-39 -19,-71 -22,-96 -2,23 -4,46 -6,68 -2,23 -5,45 -8,67l-35 262 -154 0 94 -605 163 0 91 312c1,2 2,6 4,11 8,27 13,51 16,71 1,-11 3,-23 6,-36 3,-13 7,-29 12,-47l92 -311 164 0 93 605z"/>
  <path id="1" class="fil1" d="M21706 9811c0,-33 -9,-58 -26,-77 -17,-20 -41,-29 -71,-29 -30,0 -54,9 -71,28 -17,19 -26,45 -26,78 0,32 9,58 26,77 17,19 41,28 71,28 30,0 54,-9 71,-28 17,-19 26,-45 26,-77zm130 -208l0 417 -136 0 0 -68c-19,29 -41,50 -65,64 -24,13 -52,20 -85,20 -56,0 -100,-20 -134,-61 -33,-41 -49,-95 -49,-163 0,-69 17,-123 52,-163 35,-40 82,-60 141,-60 31,0 58,7 81,20 23,14 42,34 58,62l0 -68 137 0z"/>
  <path id="2" class="fil1" d="M22171 9555l1 2c9,18 16,34 19,48 3,-13 9,-28 19,-45 1,-2 2,-4 2,-5l73 -140 196 0 -202 291 223 314 -187 0 -103 -179c-4,-8 -9,-17 -12,-25 -4,-9 -7,-17 -9,-25 -2,9 -5,18 -8,26 -4,9 -8,16 -12,24l-103 179 -187 0 224 -318 -203 -287 196 0 73 140z"/>
  <path id="3" class="fil1" d="M22662 10020l0 -276 -212 -329 190 0 81 156c1,0 2,2 3,4 8,16 14,32 18,47 2,-14 8,-29 17,-45 2,-3 3,-5 4,-6l80 -156 190 0 -212 329 0 276 -159 0z"/>
  <path id="4" class="fil1" d="M23181 9813c0,32 9,58 26,76 17,19 40,29 70,29 30,0 53,-10 71,-29 17,-18 25,-44 25,-76 0,-33 -8,-59 -25,-77 -17,-19 -41,-28 -71,-28 -30,0 -53,9 -70,28 -17,18 -26,44 -26,77zm-130 392l0 -602 135 0 0 70c19,-28 40,-49 64,-63 23,-14 49,-21 78,-21 58,0 105,20 140,60 35,40 52,95 52,163 0,67 -17,121 -52,162 -34,41 -80,62 -135,62 -36,0 -64,-6 -86,-19 -23,-13 -42,-35 -60,-64 2,8 3,18 3,30 1,12 1,26 1,44l0 178 -140 0z"/>
  <path id="5" class="fil1" d="M23905 9812c0,-31 -8,-55 -23,-73 -16,-18 -37,-27 -64,-27 -27,0 -48,9 -64,27 -15,18 -23,42 -23,73 0,31 8,56 23,74 15,18 37,26 64,26 27,0 48,-8 64,-26 15,-18 23,-43 23,-74zm147 0c0,30 -6,59 -18,86 -12,27 -29,51 -51,73 -23,21 -48,38 -76,49 -28,11 -57,16 -89,16 -32,0 -62,-5 -90,-16 -28,-11 -53,-28 -75,-49 -22,-21 -39,-45 -50,-72 -12,-28 -18,-56 -18,-87 0,-30 6,-59 17,-86 12,-27 29,-51 51,-73 22,-21 47,-37 75,-48 28,-11 58,-16 90,-16 32,0 62,5 90,16 28,11 53,27 75,48 23,22 40,46 51,73 12,27 18,56 18,86z"/>
  <path id="6" class="fil1" d="M24097 9985l31 -112c22,18 45,33 71,43 26,10 52,15 78,15 18,0 33,-3 42,-9 10,-6 15,-14 15,-26 0,-18 -20,-32 -59,-41 -12,-3 -23,-6 -30,-8 -45,-12 -76,-28 -96,-48 -20,-19 -30,-45 -30,-76 0,-41 15,-73 45,-98 31,-24 72,-36 124,-36 27,0 54,3 82,9 27,7 56,16 85,29l-31 102c-19,-14 -39,-24 -59,-31 -21,-7 -41,-10 -61,-10 -17,0 -29,3 -38,8 -9,5 -13,13 -13,23 0,15 20,27 58,37 9,3 16,5 20,6 51,14 86,32 107,51 19,20 29,47 29,80 0,43 -16,77 -49,104 -33,26 -76,39 -130,39 -37,0 -71,-4 -102,-12 -32,-9 -61,-22 -89,-39z"/>
  <path id="7" class="fil1" d="M24543 9472c0,-22 8,-41 23,-57 16,-15 35,-23 58,-23 23,0 42,8 58,23 15,15 23,34 23,57 0,23 -8,42 -24,58 -15,16 -35,24 -57,24 -22,0 -41,-8 -57,-24 -16,-16 -24,-35 -24,-58zm7 548l0 -417 148 0 0 417 -148 0z"/>
  <polygon class="fil1" points="23653,18663 23704,18663 23740,18897 23772,18663 23813,18663 23768,18954 23716,18954 23679,18704 23641,18954 23589,18954 23544,18663 23585,18663 23617,18897 "/>
  <path id="1" class="fil1" d="M23933 18654c28,0 48,8 61,23 14,15 20,37 20,68l0 127c0,31 -6,53 -20,68 -13,15 -33,23 -61,23 -27,0 -48,-8 -61,-23 -13,-15 -20,-37 -20,-68l0 -127c0,-31 7,-54 20,-68 13,-15 34,-23 61,-23zm0 34c-14,0 -24,5 -31,14 -6,9 -10,24 -10,43l0 127c0,19 4,34 10,43 7,9 17,14 31,14 14,0 25,-5 31,-14 7,-9 10,-24 10,-43l0 -127c0,-19 -3,-34 -10,-43 -6,-9 -17,-14 -31,-14z"/>
  <path id="2" class="fil1" d="M24146 18830l-34 0 0 124 -40 0 0 -291 78 0c54,0 81,24 81,73l0 17c0,14 -3,27 -11,37 -8,11 -19,18 -34,23 15,3 25,9 31,19 7,10 10,24 10,42l0 51c0,5 1,10 2,16 1,6 3,11 5,13l-42 0c-1,-2 -2,-6 -3,-12 -1,-6 -2,-11 -2,-14l0 -56c0,-15 -3,-25 -9,-32 -7,-7 -17,-10 -32,-10zm4 -133l-38 0 0 99 38 0c28,0 42,-14 42,-41l0 -17c0,-28 -14,-41 -42,-41z"/>
  <polygon id="3" class="fil1" points="24284,18954 24284,18663 24324,18663 24324,18794 24406,18663 24448,18663 24362,18794 24457,18954 24411,18954 24324,18800 24324,18954 "/>
  <path id="4" class="fil1" d="M24568 18654c52,0 78,26 78,77l0 15 -40 0 0 -15c0,-29 -12,-43 -38,-43 -11,0 -20,4 -27,11 -7,6 -11,16 -11,28l0 11c0,16 9,29 27,40l52 30c13,7 23,16 30,27 7,11 10,23 10,37l0 11c0,53 -27,80 -81,80 -54,0 -81,-27 -81,-80l0 -23 40 0 0 23c0,15 4,26 11,34 7,8 17,12 30,12 14,0 24,-4 31,-12 7,-8 10,-19 10,-34l0 -11c0,-14 -7,-25 -22,-33l-50 -29c-16,-9 -28,-19 -36,-31 -7,-11 -11,-25 -11,-41l0 -11c0,-23 7,-41 21,-54 14,-12 33,-19 57,-19z"/>
  <path id="5" class="fil1" d="M24769 18796c14,0 24,-4 31,-11 6,-8 9,-19 9,-35l0 -8c0,-15 -3,-27 -9,-34 -7,-8 -17,-11 -31,-11l-30 0 0 99 30 0zm-70 158l0 -291 70 0c53,0 80,26 80,79l0 8c0,53 -27,80 -80,80l-30 0 0 124 -40 0z"/>
  <path id="6" class="fil1" d="M24879 18954l72 -291 50 0 72 291 -41 0 -17 -74 -78 0 -17 74 -41 0zm66 -107l62 0 -31 -140 -31 140z"/>
  <path id="7" class="fil1" d="M25196 18688c-14,0 -25,5 -31,14 -7,9 -10,24 -10,43l0 127c0,19 3,34 10,43 6,9 17,14 31,14 14,0 24,-5 31,-14 6,-9 10,-24 10,-43l0 -13 40 0 0 13c0,31 -7,53 -20,68 -14,15 -34,23 -61,23 -28,0 -48,-8 -61,-23 -14,-15 -20,-37 -20,-68l0 -127c0,-31 6,-54 20,-68 13,-15 33,-23 61,-23 27,0 47,8 61,23 13,15 20,37 20,68l0 4 -40 0 0 -4c0,-19 -4,-34 -10,-43 -7,-9 -17,-14 -31,-14z"/>
  <polygon id="8" class="fil1" points="25326,18954 25326,18663 25461,18663 25461,18697 25366,18697 25366,18785 25457,18785 25457,18819 25366,18819 25366,18920 25461,18920 25461,18954 "/>
  <g id="_1984224802880">
   <circle class="fil0 str0" cx="29500" cy="13000" r="2159"/>
   <circle class="fil0 str0" transform="matrix(0.497172 0.861128 -0.861128 0.497172 27248.3 14300)" r="161"/>
   <circle class="fil0 str0" cx="29500" cy="10400" r="160"/>
   <circle class="fil0 str0" transform="matrix(-0.497172 0.861128 -0.861128 -0.497172 31751.7 14300)" r="161"/>
  </g>
 </g>
</svg>
