<?xml version="1.0" encoding="UTF-8"?>
<!DOCTYPE svg PUBLIC "-//W3C//DTD SVG 1.1//EN" "http://www.w3.org/Graphics/SVG/1.1/DTD/svg11.dtd">
<!-- Creator: CorelDRAW X8 -->
<svg xmlns="http://www.w3.org/2000/svg" xml:space="preserve" width="297mm" height="210mm" version="1.1" style="shape-rendering:geometricPrecision; text-rendering:geometricPrecision; image-rendering:optimizeQuality; fill-rule:evenodd; clip-rule:evenodd"
viewBox="0 0 29700 21000"
 xmlns:xlink="http://www.w3.org/1999/xlink">
 <defs>
  <style type="text/css">
   <![CDATA[
    .str1 {stroke:red;stroke-width:20}
    .str0 {stroke:black;stroke-width:7.62}
    .fil0 {fill:none}
    .fil2 {fill:red}
    .fil1 {fill:red;fill-rule:nonzero}
   ]]>
  </style>
 </defs>
 <g id="Layer_x0020_1">
  <metadata id="CorelCorpID_0Corel-Layer"/>
  <rect class="fil0 str0" x="1000" y="2800" width="23200" height="15200" rx="491" ry="494"/>
  <circle class="fil0 str0" cx="1600" cy="3400" r="275"/>
  <circle class="fil0 str0" cx="1600" cy="17400" r="275"/>
  <circle class="fil0 str0" cx="23600" cy="3400" r="275"/>
  <circle class="fil0 str0" cx="23600" cy="17400" r="275"/>
  <circle class="fil0 str0" cx="19099" cy="8652" r="500"/>
  <circle class="fil0 str0" cx="17598" cy="8652" r="500"/>
  <circle class="fil0 str0" cx="16099" cy="8652" r="500"/>
  <circle class="fil0 str0" cx="17598" cy="10651" r="500"/>
  <circle class="fil0 str0" cx="19099" cy="10651" r="500"/>
  <circle class="fil0 str0" cx="22098" cy="12901" r="500"/>
  <circle class="fil0 str0" cx="20600" cy="12901" r="500"/>
  <circle class="fil0 str0" cx="19099" cy="12901" r="500"/>
  <circle class="fil0 str0" cx="17598" cy="12901" r="500"/>
  <circle class="fil0 str0" cx="13085" cy="8660" r="500"/>
  <circle class="fil0 str0" cx="11586" cy="8660" r="500"/>
  <circle class="fil0 str0" cx="10085" cy="8660" r="500"/>
  <circle class="fil0 str0" cx="8584" cy="8660" r="500"/>
  <circle class="fil0 str0" cx="20599" cy="15901" r="500"/>
  <circle class="fil0 str0" cx="19100" cy="15901" r="500"/>
  <circle class="fil0 str0" cx="17599" cy="15901" r="500"/>
  <circle class="fil0 str0" cx="16098" cy="15901" r="500"/>
  <circle class="fil0 str0" cx="16099" cy="12901" r="500"/>
  <circle class="fil0 str0" cx="13600" cy="14400" r="500"/>
  <circle class="fil0 str0" cx="10099" cy="10651" r="500"/>
  <circle class="fil0 str0" cx="11598" cy="10651" r="500"/>
  <circle class="fil0 str0" cx="10099" cy="12901" r="500"/>
  <circle class="fil0 str0" cx="10849" cy="14400" r="500"/>
  <circle class="fil0 str0" cx="9350" cy="14400" r="500"/>
  <circle class="fil0 str0" cx="10099" cy="15901" r="500"/>
  <circle class="fil0 str0" cx="7102" cy="10651" r="500"/>
  <circle class="fil0 str0" cx="5601" cy="10651" r="500"/>
  <circle class="fil0 str0" cx="4100" cy="10651" r="500"/>
  <circle class="fil0 str0" cx="5601" cy="8650" r="500"/>
  <circle class="fil0 str0" cx="4100" cy="8650" r="500"/>
  <rect class="fil0 str0" x="4525" y="4260" width="7150" height="2450"/>
  <circle class="fil0 str0" cx="4351" cy="3877" r="160"/>
  <circle class="fil0 str0" cx="4351" cy="6973" r="160"/>
  <circle class="fil0 str0" cx="3102" cy="5398" r="160"/>
  <circle class="fil0 str0" cx="11850" cy="3877" r="160"/>
  <circle class="fil0 str0" cx="11850" cy="6973" r="160"/>
  <circle class="fil0 str0" cx="14598" cy="8652" r="160"/>
  <circle class="fil0 str0" cx="22098" cy="5398" r="160"/>
  <circle class="fil0 str0" cx="22098" cy="16899" r="160"/>
  <circle class="fil0 str0" cx="14598" cy="16899" r="160"/>
  <circle class="fil0 str0" cx="8100" cy="16899" r="160"/>
  <circle class="fil0 str0" cx="3102" cy="16899" r="160"/>
  <circle class="fil0 str0" cx="8100" cy="11898" r="160"/>
  <circle class="fil0 str0" cx="3102" cy="11901" r="160"/>
  <circle class="fil0 str0" cx="5601" cy="14400" r="1750"/>
  <path class="fil1" d="M3568 7996l72 -292 50 0 72 292 -41 0 -17 -74 -78 0 -17 74 -41 0zm66 -108l62 0 -31 -139 -31 139z"/>
  <polygon id="1" class="fil1" points="3804,7996 3804,7704 3844,7704 3844,7962 3931,7962 3931,7996 "/>
  <path id="2" class="fil1" d="M3953 7996l71 -292 51 0 71 292 -40 0 -17 -74 -78 0 -17 74 -41 0zm65 -108l63 0 -32 -139 -31 139z"/>
  <path id="3" class="fil1" d="M4263 7871l-35 0 0 125 -40 0 0 -292 79 0c54,0 81,25 81,73l0 17c0,15 -4,27 -12,38 -8,10 -19,18 -33,22 14,3 24,10 31,20 6,10 9,24 9,42l0 50c0,5 1,11 2,17 2,6 3,10 5,13l-42 0c-1,-3 -2,-7 -3,-13 -1,-6 -2,-10 -2,-14l0 -55c0,-15 -3,-26 -9,-33 -6,-6 -17,-10 -31,-10zm4 -133l-39 0 0 99 39 0c27,0 41,-13 41,-41l0 -17c0,-27 -14,-41 -41,-41z"/>
  <polygon id="4" class="fil1" points="4400,7996 4400,7704 4462,7704 4516,7941 4570,7704 4632,7704 4632,7996 4596,7996 4596,7741 4537,7996 4495,7996 4436,7741 4436,7996 "/>
  <polygon class="fil1" points="5169,7996 5169,7704 5209,7704 5209,7826 5291,7826 5291,7704 5331,7704 5331,7996 5291,7996 5291,7860 5209,7860 5209,7996 "/>
  <path id="1" class="fil1" d="M5470 7696c27,0 48,7 61,22 13,15 20,38 20,68l0 128c0,30 -7,53 -20,68 -13,15 -34,22 -61,22 -28,0 -48,-7 -61,-22 -14,-15 -20,-38 -20,-68l0 -128c0,-30 6,-53 20,-68 13,-15 33,-22 61,-22zm0 34c-14,0 -25,4 -31,14 -7,9 -10,23 -10,42l0 128c0,19 3,33 10,42 6,10 17,14 31,14 14,0 24,-4 31,-14 6,-9 10,-23 10,-42l0 -128c0,-19 -4,-33 -10,-42 -7,-10 -17,-14 -31,-14z"/>
  <polygon id="2" class="fil1" points="5608,7996 5608,7704 5670,7704 5724,7941 5779,7704 5840,7704 5840,7996 5804,7996 5804,7741 5746,7996 5703,7996 5645,7741 5645,7996 "/>
  <polygon id="3" class="fil1" points="5898,7996 5898,7704 6033,7704 6033,7738 5938,7738 5938,7826 6029,7826 6029,7860 5938,7860 5938,7962 6033,7962 6033,7996 "/>
  <path class="fil1" d="M8283 7991l72 -291 51 0 71 291 -41 0 -17 -74 -78 0 -17 74 -41 0zm66 -108l63 0 -32 -139 -31 139z"/>
  <polygon id="1" class="fil1" points="8575,7991 8575,7734 8503,7734 8503,7700 8682,7700 8682,7734 8615,7734 8615,7991 "/>
  <path id="2" class="fil1" d="M8804 7725c-14,0 -25,5 -31,14 -7,9 -10,23 -10,43l0 127c0,19 3,33 10,43 6,9 17,14 31,14 14,0 24,-5 31,-14 6,-10 10,-24 10,-43l0 -13 40 0 0 13c0,30 -7,53 -20,68 -13,15 -34,22 -61,22 -28,0 -48,-7 -61,-22 -14,-15 -20,-37 -20,-68l0 -127c0,-31 6,-54 20,-69 13,-14 33,-22 61,-22 27,0 48,8 61,22 13,15 20,38 20,69l0 4 -40 0 0 -4c0,-20 -4,-34 -10,-43 -7,-9 -17,-14 -31,-14z"/>
  <path class="fil1" d="M9709 7987l72 -292 51 0 71 292 -41 0 -17 -74 -78 0 -17 74 -41 0zm66 -108l63 0 -32 -139 -31 139z"/>
  <path id="1" class="fil1" d="M9945 7695l40 0 0 210c0,19 3,33 10,42 7,10 17,14 31,14 14,0 24,-4 31,-14 7,-9 10,-23 10,-42l0 -210 40 0 0 210c0,30 -7,53 -20,68 -13,15 -33,22 -61,22 -27,0 -48,-7 -61,-22 -13,-15 -20,-38 -20,-68l0 -210z"/>
  <polygon id="2" class="fil1" points="10199,7695 10246,7797 10293,7695 10337,7695 10268,7835 10344,7987 10299,7987 10246,7873 10192,7987 10148,7987 10224,7835 10154,7695 "/>
  <polygon id="3" class="fil1" points="10452,7987 10452,7738 10397,7782 10397,7743 10456,7695 10490,7695 10490,7987 "/>
  <path class="fil1" d="M11188 7991l71 -291 51 0 71 291 -40 0 -17 -74 -78 0 -17 74 -41 0zm65 -108l63 0 -31 -139 -32 139z"/>
  <path id="1" class="fil1" d="M11423 7700l40 0 0 209c0,19 4,33 10,43 7,9 17,14 31,14 14,0 25,-5 31,-14 7,-10 10,-24 10,-43l0 -209 40 0 0 209c0,30 -6,53 -20,68 -13,15 -33,22 -61,22 -27,0 -48,-7 -61,-22 -13,-15 -20,-37 -20,-68l0 -209z"/>
  <polygon id="2" class="fil1" points="11677,7700 11724,7801 11771,7700 11816,7700 11746,7839 11822,7991 11777,7991 11724,7877 11671,7991 11626,7991 11702,7839 11633,7700 "/>
  <path id="3" class="fil1" d="M11932 7691c24,0 43,7 57,21 13,13 20,33 20,59 0,19 -5,38 -13,57 -8,19 -21,40 -38,61l-57 72 108 0 0 30 -154 0 0 -30 84 -105c11,-14 19,-28 25,-41 5,-14 7,-28 7,-44 0,-33 -13,-49 -39,-49 -26,0 -40,17 -40,51l0 16 -37 0 0 -16c0,-26 7,-47 20,-61 13,-14 32,-21 57,-21z"/>
  <path class="fil1" d="M12674 7991l72 -291 50 0 72 291 -41 0 -17 -74 -78 0 -17 74 -41 0zm66 -108l62 0 -31 -139 -31 139z"/>
  <path id="1" class="fil1" d="M12910 7700l40 0 0 209c0,19 3,33 10,43 6,9 17,14 31,14 14,0 24,-5 31,-14 6,-10 10,-24 10,-43l0 -209 40 0 0 209c0,30 -7,53 -20,68 -13,15 -34,22 -61,22 -28,0 -48,-7 -61,-22 -14,-15 -20,-37 -20,-68l0 -209z"/>
  <polygon id="2" class="fil1" points="13163,7700 13210,7801 13257,7700 13302,7700 13233,7839 13308,7991 13264,7991 13210,7877 13157,7991 13113,7991 13188,7839 13119,7700 "/>
  <path id="3" class="fil1" d="M13418 7691c23,0 41,7 54,20 14,13 21,31 21,54l0 12c0,16 -3,29 -9,39 -6,11 -14,18 -25,23 24,10 37,33 37,69l0 9c0,26 -7,47 -21,61 -13,14 -33,21 -57,21 -24,0 -43,-7 -57,-21 -13,-14 -20,-34 -20,-61l0 -13 37 0 0 13c0,35 13,52 40,52 27,0 41,-17 41,-52l0 -9c0,-36 -14,-54 -41,-54l-18 0 0 -30 18 0c12,0 22,-4 28,-12 6,-8 10,-20 10,-35l0 -12c0,-14 -4,-24 -10,-32 -7,-8 -16,-11 -28,-11 -11,0 -20,3 -27,11 -7,8 -10,18 -10,32l0 14 -37 0 0 -14c0,-23 6,-41 20,-54 14,-13 32,-20 54,-20z"/>
  <polygon class="fil1" points="9630,10002 9630,9710 9765,9710 9765,9744 9670,9744 9670,9832 9761,9832 9761,9866 9670,9866 9670,10002 "/>
  <polygon id="1" class="fil1" points="9803,10002 9803,9710 9843,9710 9843,9968 9930,9968 9930,10002 "/>
  <path id="2" class="fil1" d="M10048 9702c28,0 48,7 61,22 14,15 20,38 20,68l0 127c0,31 -6,54 -20,69 -13,15 -33,22 -61,22 -27,0 -48,-7 -61,-22 -13,-15 -20,-38 -20,-69l0 -127c0,-30 7,-53 20,-68 13,-15 34,-22 61,-22zm0 34c-14,0 -24,4 -31,14 -6,9 -10,23 -10,42l0 127c0,20 4,34 10,43 7,9 17,14 31,14 14,0 25,-5 31,-14 7,-9 10,-23 10,-43l0 -127c0,-19 -3,-33 -10,-42 -6,-10 -17,-14 -31,-14z"/>
  <path id="3" class="fil1" d="M10268 9702c28,0 48,7 61,22 13,15 20,38 20,68l0 127c0,31 -7,54 -20,69 -13,15 -33,22 -61,22 -27,0 -48,-7 -61,-22 -13,-15 -20,-38 -20,-69l0 -127c0,-30 7,-53 20,-68 13,-15 34,-22 61,-22zm0 34c-14,0 -24,4 -31,14 -7,9 -10,23 -10,42l0 127c0,20 3,34 10,43 7,9 17,14 31,14 14,0 24,-5 31,-14 7,-9 10,-23 10,-43l0 -127c0,-19 -3,-33 -10,-42 -7,-10 -17,-14 -31,-14z"/>
  <path id="4" class="fil1" d="M10488 9744l-41 0 0 224 41 0c14,0 24,-5 31,-14 6,-9 10,-24 10,-43l0 -110c0,-19 -4,-34 -10,-43 -7,-9 -17,-14 -31,-14zm0 -34c27,0 48,8 61,23 13,14 20,37 20,68l0 110c0,31 -7,53 -20,68 -13,15 -34,23 -61,23l-81 0 0 -292 81 0z"/>
  <polygon class="fil1" points="11223,10002 11223,9710 11285,9710 11339,9947 11393,9710 11455,9710 11455,10002 11419,10002 11419,9747 11360,10002 11318,10002 11259,9747 11259,10002 "/>
  <polygon id="1" class="fil1" points="11511,10002 11511,9710 11551,9710 11551,10002 "/>
  <path id="2" class="fil1" d="M11680 9702c52,0 78,25 78,76l0 16 -40 0 0 -16c0,-28 -13,-42 -38,-42 -12,0 -21,3 -28,10 -7,7 -10,16 -10,28l0 11c0,17 9,30 26,40l53 30c13,7 23,17 29,28 7,11 11,23 11,36l0 11c0,53 -27,80 -81,80 -54,0 -81,-27 -81,-80l0 -23 40 0 0 23c0,15 3,27 10,34 7,8 18,12 31,12 13,0 24,-4 31,-12 6,-7 10,-19 10,-34l0 -11c0,-13 -7,-24 -22,-33l-51 -28c-16,-10 -28,-20 -35,-31 -7,-12 -11,-25 -11,-42l0 -11c0,-23 7,-41 21,-53 13,-13 32,-19 57,-19z"/>
  <polygon id="3" class="fil1" points="11867,10002 11867,9744 11795,9744 11795,9710 11973,9710 11973,9744 11907,9744 11907,10002 "/>
  <path class="fil1" d="M3705 9877l-34 0 0 125 -40 0 0 -292 78 0c54,0 81,25 81,73l0 17c0,15 -4,27 -12,38 -8,10 -19,18 -33,22 14,3 25,10 31,20 7,10 10,24 10,42l0 50c0,5 1,10 2,17 1,6 3,10 4,13l-41 0c-1,-3 -2,-7 -3,-13 -1,-6 -2,-11 -2,-14l0 -55c0,-15 -3,-26 -10,-33 -6,-7 -16,-10 -31,-10zm4 -133l-38 0 0 99 38 0c28,0 41,-14 41,-41l0 -17c0,-27 -13,-41 -41,-41z"/>
  <polygon id="1" class="fil1" points="3843,10002 3843,9710 3977,9710 3977,9744 3882,9744 3882,9832 3973,9832 3973,9866 3882,9866 3882,9968 3977,9968 3977,10002 "/>
  <path id="2" class="fil1" d="M4096 9702c52,0 78,25 78,76l0 16 -40 0 0 -16c0,-28 -13,-42 -38,-42 -12,0 -21,3 -28,10 -7,7 -10,16 -10,28l0 11c0,17 8,30 26,40l53 30c12,7 22,17 29,28 7,11 11,23 11,36l0 11c0,53 -27,80 -81,80 -54,0 -81,-27 -81,-80l0 -23 40 0 0 23c0,15 3,27 10,34 7,8 17,12 31,12 13,0 23,-4 30,-12 7,-7 11,-19 11,-34l0 -11c0,-13 -8,-24 -22,-33l-51 -28c-16,-10 -28,-20 -35,-31 -7,-12 -11,-25 -11,-42l0 -11c0,-23 7,-41 20,-53 14,-13 33,-19 58,-19z"/>
  <polygon id="3" class="fil1" points="4226,10002 4226,9710 4361,9710 4361,9744 4266,9744 4266,9832 4357,9832 4357,9866 4266,9866 4266,9968 4361,9968 4361,10002 "/>
  <polygon id="4" class="fil1" points="4463,10002 4463,9744 4391,9744 4391,9710 4569,9710 4569,9744 4503,9744 4503,10002 "/>
  <path class="fil1" d="M5375 9873l-34 0 0 124 -40 0 0 -291 78 0c54,0 81,24 81,73l0 17c0,14 -4,27 -12,37 -8,11 -19,19 -33,23 14,3 24,10 31,20 7,10 10,24 10,42l0 50c0,5 0,10 2,16 1,7 3,11 4,13l-41 0c-1,-2 -2,-6 -3,-12 -2,-6 -2,-11 -2,-14l0 -55c0,-15 -3,-26 -10,-33 -6,-7 -16,-10 -31,-10zm4 -133l-38 0 0 99 38 0c28,0 41,-14 41,-41l0 -17c0,-27 -13,-41 -41,-41z"/>
  <path id="1" class="fil1" d="M5512 9706l40 0 0 209c0,20 4,34 10,43 7,9 17,14 31,14 14,0 25,-5 31,-14 7,-9 10,-23 10,-43l0 -209 40 0 0 209c0,31 -6,54 -20,68 -13,15 -33,23 -61,23 -27,0 -47,-8 -61,-22 -13,-15 -20,-38 -20,-69l0 -209z"/>
  <polygon id="2" class="fil1" points="5732,9997 5732,9706 5795,9706 5862,9955 5862,9706 5901,9706 5901,9997 5839,9997 5772,9748 5772,9997 "/>
  <polygon class="fil1" points="6721,10002 6721,9710 6761,9710 6761,9832 6843,9832 6843,9710 6883,9710 6883,10002 6843,10002 6843,9866 6761,9866 6761,10002 "/>
  <path id="1" class="fil1" d="M7022 9702c27,0 47,7 61,22 13,15 19,38 19,68l0 127c0,31 -6,54 -19,69 -14,15 -34,22 -61,22 -28,0 -48,-7 -61,-22 -14,-15 -20,-38 -20,-69l0 -127c0,-30 6,-53 20,-68 13,-15 33,-22 61,-22zm0 34c-14,0 -25,4 -31,14 -7,9 -10,23 -10,42l0 127c0,20 3,34 10,43 6,9 17,14 31,14 14,0 24,-5 31,-14 6,-9 10,-23 10,-43l0 -127c0,-19 -4,-33 -10,-42 -7,-10 -17,-14 -31,-14z"/>
  <polygon id="2" class="fil1" points="7160,10002 7160,9710 7200,9710 7200,9968 7287,9968 7287,10002 "/>
  <path id="3" class="fil1" d="M7406 9744l-41 0 0 224 41 0c14,0 24,-5 31,-14 7,-9 10,-24 10,-43l0 -110c0,-19 -3,-34 -10,-43 -7,-9 -17,-14 -31,-14zm0 -34c28,0 48,8 61,23 13,14 20,37 20,68l0 110c0,31 -7,53 -20,68 -13,15 -33,23 -61,23l-81 0 0 -292 81 0z"/>
  <path class="fil1" d="M17393 7734l-41 0 0 223 41 0c14,0 25,-5 31,-14 7,-9 10,-23 10,-43l0 -110c0,-19 -3,-33 -10,-43 -6,-9 -17,-13 -31,-13zm0 -34c28,0 48,7 61,22 14,15 20,38 20,68l0 110c0,31 -6,54 -20,69 -13,15 -33,22 -61,22l-81 0 0 -291 81 0z"/>
  <polygon id="1" class="fil1" points="17532,7991 17532,7700 17667,7700 17667,7734 17572,7734 17572,7822 17662,7822 17662,7856 17572,7856 17572,7957 17667,7957 17667,7991 "/>
  <path id="2" class="fil1" d="M17793 7725c-14,0 -24,5 -31,14 -6,9 -10,23 -10,43l0 127c0,19 4,33 10,43 7,9 17,14 31,14 14,0 25,-5 31,-14 7,-10 10,-24 10,-43l0 -13 40 0 0 13c0,30 -7,53 -20,68 -13,15 -33,22 -61,22 -27,0 -48,-7 -61,-22 -13,-15 -20,-37 -20,-68l0 -127c0,-31 7,-54 20,-69 13,-14 34,-22 61,-22 28,0 48,8 61,22 13,15 20,38 20,69l0 4 -40 0 0 -4c0,-20 -3,-34 -10,-43 -6,-9 -17,-14 -31,-14z"/>
  <path class="fil1" d="M15550 7691c52,0 78,26 78,77l0 15 -40 0 0 -15c0,-29 -13,-43 -38,-43 -12,0 -21,4 -28,10 -7,7 -10,17 -10,29l0 11c0,16 8,29 26,39l53 30c12,8 22,17 29,28 7,11 10,23 10,37l0 11c0,53 -27,79 -80,79 -54,0 -81,-26 -81,-79l0 -23 39 0 0 23c0,15 4,26 11,34 7,8 17,12 31,12 13,0 23,-4 30,-12 7,-8 11,-19 11,-34l0 -11c0,-14 -8,-25 -22,-33l-51 -29c-16,-9 -28,-19 -35,-31 -8,-11 -11,-25 -11,-41l0 -11c0,-23 7,-41 20,-54 14,-12 33,-19 58,-19z"/>
  <path id="1" class="fil1" d="M15750 7833c14,0 24,-4 31,-11 6,-8 10,-19 10,-35l0 -8c0,-16 -4,-27 -10,-34 -7,-8 -17,-11 -31,-11l-30 0 0 99 30 0zm-70 158l0 -291 70 0c54,0 81,26 81,79l0 8c0,53 -27,79 -81,79l-30 0 0 125 -40 0z"/>
  <polygon id="2" class="fil1" points="15875,7991 15875,7700 15914,7700 15914,7991 "/>
  <polygon id="3" class="fil1" points="15970,7991 15970,7700 16033,7700 16100,7949 16100,7700 16140,7700 16140,7991 16077,7991 16010,7742 16010,7991 "/>
  <path id="4" class="fil1" d="M16279 7734l-41 0 0 223 41 0c14,0 24,-5 31,-14 6,-9 10,-23 10,-43l0 -110c0,-19 -4,-33 -10,-43 -7,-9 -17,-13 -31,-13zm0 -34c27,0 47,7 61,22 13,15 19,38 19,68l0 110c0,31 -6,54 -19,69 -14,15 -34,22 -61,22l-81 0 0 -291 81 0z"/>
  <polygon id="5" class="fil1" points="16417,7991 16417,7700 16457,7700 16457,7957 16544,7957 16544,7991 "/>
  <polygon id="6" class="fil1" points="16582,7991 16582,7700 16717,7700 16717,7734 16622,7734 16622,7822 16713,7822 16713,7856 16622,7856 16622,7957 16717,7957 16717,7991 "/>
  <polygon class="fil1" points="18855,7991 18855,7700 18895,7700 18895,7991 "/>
  <polygon id="1" class="fil1" points="18951,7991 18951,7700 19014,7700 19080,7949 19080,7700 19120,7700 19120,7991 19058,7991 18991,7742 18991,7991 "/>
  <path id="2" class="fil1" d="M19260 7725c-15,0 -25,5 -32,14 -6,9 -10,23 -10,43l0 127c0,19 4,33 10,43 7,9 17,14 32,14 13,0 24,-5 30,-14 7,-10 10,-24 10,-43l0 -13 40 0 0 13c0,30 -6,53 -19,68 -14,15 -34,22 -61,22 -28,0 -48,-7 -62,-22 -13,-15 -20,-37 -20,-68l0 -127c0,-31 7,-54 20,-69 14,-14 34,-22 62,-22 27,0 47,8 61,22 13,15 19,38 19,69l0 4 -40 0 0 -4c0,-20 -3,-34 -9,-43 -7,-9 -17,-14 -31,-14z"/>
  <path class="fil1" d="M17398 9738l-41 0 0 224 41 0c14,0 24,-5 31,-14 6,-9 10,-24 10,-43l0 -110c0,-19 -4,-34 -10,-43 -7,-9 -17,-14 -31,-14zm0 -34c27,0 47,8 61,23 13,15 19,37 19,68l0 110c0,31 -6,53 -19,68 -14,15 -34,23 -61,23l-81 0 0 -292 81 0z"/>
  <polygon id="1" class="fil1" points="17536,9996 17536,9704 17671,9704 17671,9738 17576,9738 17576,9826 17667,9826 17667,9860 17576,9860 17576,9962 17671,9962 17671,9996 "/>
  <path id="2" class="fil1" d="M17798 9730c-14,0 -25,4 -31,14 -7,9 -10,23 -10,42l0 128c0,19 3,33 10,42 6,10 17,14 31,14 14,0 24,-4 31,-14 6,-9 10,-23 10,-42l0 -13 39 0 0 13c0,30 -6,53 -19,68 -14,15 -34,22 -61,22 -28,0 -48,-7 -62,-22 -13,-15 -19,-38 -19,-68l0 -128c0,-30 6,-53 19,-68 14,-15 34,-22 62,-22 27,0 47,7 61,22 13,15 19,38 19,68l0 5 -39 0 0 -5c0,-19 -4,-33 -10,-42 -7,-10 -17,-14 -31,-14z"/>
  <polygon class="fil1" points="18856,9997 18856,9705 18896,9705 18896,9997 "/>
  <polygon id="1" class="fil1" points="18952,9997 18952,9705 19015,9705 19081,9954 19081,9705 19121,9705 19121,9997 19059,9997 18992,9748 18992,9997 "/>
  <path id="2" class="fil1" d="M19260 9731c-14,0 -24,4 -31,14 -6,9 -10,23 -10,42l0 127c0,20 4,34 10,43 7,9 17,14 31,14 14,0 25,-5 31,-14 7,-9 10,-23 10,-43l0 -12 40 0 0 12c0,31 -6,54 -20,69 -13,15 -33,22 -61,22 -27,0 -48,-7 -61,-22 -13,-15 -20,-38 -20,-69l0 -127c0,-30 7,-53 20,-68 13,-15 34,-22 61,-22 28,0 48,7 61,22 14,15 20,38 20,68l0 4 -40 0 0 -4c0,-19 -3,-33 -10,-42 -6,-10 -17,-14 -31,-14z"/>
  <polygon class="fil1" points="15749,10800 15749,10509 15884,10509 15884,10543 15789,10543 15789,10631 15880,10631 15880,10665 15789,10665 15789,10800 "/>
  <polygon id="1" class="fil1" points="15922,10800 15922,10509 16057,10509 16057,10543 15962,10543 15962,10631 16052,10631 16052,10665 15962,10665 15962,10767 16057,10767 16057,10800 "/>
  <polygon id="2" class="fil1" points="16102,10800 16102,10509 16237,10509 16237,10543 16142,10543 16142,10631 16233,10631 16233,10665 16142,10665 16142,10767 16237,10767 16237,10800 "/>
  <path id="3" class="fil1" d="M16363 10543l-41 0 0 224 41 0c14,0 25,-5 31,-14 7,-10 10,-24 10,-43l0 -110c0,-20 -3,-34 -10,-43 -6,-9 -17,-14 -31,-14zm0 -34c28,0 48,8 61,23 14,14 20,37 20,68l0 110c0,31 -6,53 -20,68 -13,15 -33,22 -61,22l-81 0 0 -291 81 0z"/>
  <path class="fil1" d="M12861 13041l40 0 0 222c0,52 -24,78 -71,78 -46,0 -70,-26 -70,-78l0 -25 40 0 0 25c0,30 10,44 30,44 21,0 31,-14 31,-44l0 -222z"/>
  <path id="1" class="fil1" d="M13039 13033c28,0 48,7 61,22 13,15 20,38 20,68l0 128c0,30 -7,53 -20,68 -13,15 -33,22 -61,22 -27,0 -48,-7 -61,-22 -13,-15 -20,-38 -20,-68l0 -128c0,-30 7,-53 20,-68 13,-15 34,-22 61,-22zm0 34c-14,0 -24,4 -31,14 -7,9 -10,23 -10,42l0 128c0,19 3,33 10,42 7,10 17,14 31,14 14,0 24,-4 31,-14 7,-9 10,-23 10,-42l0 -128c0,-19 -3,-33 -10,-42 -6,-10 -17,-14 -31,-14z"/>
  <path id="2" class="fil1" d="M13259 13067c-14,0 -25,4 -31,14 -7,9 -10,23 -10,42l0 128c0,19 3,33 10,42 6,10 17,14 31,14 8,0 16,-1 23,-4 8,-3 14,-6 18,-10l0 -79 -26 0 0 -34 66 0 0 132c-11,9 -23,16 -38,21 -15,5 -29,8 -43,8 -28,0 -48,-7 -61,-22 -13,-15 -20,-38 -20,-68l0 -128c0,-30 7,-53 20,-68 13,-15 33,-22 61,-22 54,0 81,28 81,84l0 4 -40 0 0 -4c0,-33 -14,-50 -41,-50z"/>
  <path id="3" class="fil1" d="M13565 13033c52,0 78,25 78,76l0 16 -40 0 0 -16c0,-28 -13,-42 -38,-42 -12,0 -21,3 -28,10 -7,7 -10,16 -10,28l0 12c0,16 8,29 26,39l53 30c12,7 22,17 29,28 7,11 10,23 10,37l0 11c0,53 -26,79 -80,79 -54,0 -81,-26 -81,-79l0 -23 39 0 0 23c0,14 4,26 11,34 7,7 17,11 31,11 13,0 23,-4 30,-11 7,-8 11,-20 11,-34l0 -11c0,-14 -8,-25 -22,-34l-51 -28c-16,-9 -28,-20 -35,-31 -8,-12 -11,-25 -11,-41l0 -12c0,-23 7,-40 20,-53 14,-13 33,-19 58,-19z"/>
  <path id="4" class="fil1" d="M13765 13174c14,0 24,-3 31,-11 6,-7 10,-19 10,-34l0 -8c0,-16 -4,-27 -10,-35 -7,-7 -17,-11 -31,-11l-30 0 0 99 30 0zm-70 159l0 -292 70 0c54,0 81,27 81,80l0 8c0,53 -27,79 -81,79l-30 0 0 125 -40 0z"/>
  <polygon id="5" class="fil1" points="13891,13333 13891,13041 14026,13041 14026,13075 13931,13075 13931,13163 14022,13163 14022,13197 13931,13197 13931,13299 14026,13299 14026,13333 "/>
  <polygon id="6" class="fil1" points="14071,13333 14071,13041 14206,13041 14206,13075 14111,13075 14111,13163 14202,13163 14202,13197 14111,13197 14111,13299 14206,13299 14206,13333 "/>
  <path id="7" class="fil1" d="M14333 13075l-41 0 0 224 41 0c14,0 24,-5 31,-14 6,-9 10,-24 10,-43l0 -110c0,-19 -4,-34 -10,-43 -7,-9 -17,-14 -31,-14zm0 -34c27,0 48,8 61,23 13,15 20,37 20,68l0 110c0,31 -7,53 -20,68 -13,15 -34,23 -61,23l-81 0 0 -292 81 0z"/>
  <path class="fil1" d="M15700 11990l-41 0 0 223 41 0c14,0 24,-5 31,-14 6,-9 10,-23 10,-43l0 -110c0,-19 -4,-33 -10,-43 -7,-9 -17,-13 -31,-13zm0 -34c27,0 47,7 61,22 13,15 20,38 20,68l0 110c0,31 -7,54 -20,69 -14,15 -34,22 -61,22l-81 0 0 -291 81 0z"/>
  <polygon id="1" class="fil1" points="15837,12247 15837,11956 15877,11956 15877,12247 "/>
  <path id="2" class="fil1" d="M15916 12247l72 -291 51 0 71 291 -41 0 -17 -74 -78 0 -17 74 -41 0zm66 -107l63 0 -32 -140 -31 140z"/>
  <polygon id="3" class="fil1" points="16152,12247 16152,11956 16192,11956 16192,12213 16279,12213 16279,12247 "/>
  <polygon id="4" class="fil1" points="16445,11956 16492,12057 16539,11956 16583,11956 16514,12095 16590,12247 16545,12247 16492,12133 16438,12247 16394,12247 16470,12095 16400,11956 "/>
  <path class="fil1" d="M18711 11990l-41 0 0 223 41 0c14,0 25,-5 31,-14 7,-9 10,-23 10,-43l0 -110c0,-19 -3,-33 -10,-43 -6,-9 -17,-13 -31,-13zm0 -34c28,0 48,7 61,22 14,15 20,38 20,68l0 110c0,31 -6,54 -20,69 -13,15 -33,22 -61,22l-81 0 0 -291 81 0z"/>
  <polygon id="1" class="fil1" points="18848,12247 18848,11956 18888,11956 18888,12247 "/>
  <path id="2" class="fil1" d="M18928 12247l72 -291 50 0 72 291 -41 0 -17 -74 -78 0 -17 74 -41 0zm66 -107l62 0 -31 -140 -31 140z"/>
  <polygon id="3" class="fil1" points="19164,12247 19164,11956 19204,11956 19204,12213 19291,12213 19291,12247 "/>
  <polygon id="4" class="fil1" points="19411,12247 19411,12209 19528,11990 19415,11990 19415,11956 19569,11956 19569,11994 19452,12213 19573,12213 19573,12247 "/>
  <path class="fil1" d="M17210 11990l-41 0 0 223 41 0c14,0 24,-5 31,-14 7,-9 10,-23 10,-43l0 -110c0,-19 -3,-33 -10,-43 -6,-9 -17,-13 -31,-13zm0 -34c28,0 48,7 61,22 13,15 20,38 20,68l0 110c0,31 -7,54 -20,69 -13,15 -33,22 -61,22l-81 0 0 -291 81 0z"/>
  <polygon id="1" class="fil1" points="17347,12247 17347,11956 17387,11956 17387,12247 "/>
  <path id="2" class="fil1" d="M17427 12247l72 -291 50 0 72 291 -41 0 -17 -74 -78 0 -17 74 -41 0zm66 -107l62 0 -31 -140 -31 140z"/>
  <polygon id="3" class="fil1" points="17663,12247 17663,11956 17703,11956 17703,12213 17790,12213 17790,12247 "/>
  <polygon id="4" class="fil1" points="17943,11956 17991,12090 18038,11956 18079,11956 18011,12132 18011,12247 17971,12247 17971,12132 17902,11956 "/>
  <path class="fil1" d="M20205 11990l-41 0 0 223 41 0c14,0 24,-5 31,-14 6,-9 10,-23 10,-43l0 -110c0,-19 -4,-33 -10,-43 -7,-9 -17,-13 -31,-13zm0 -34c27,0 47,7 61,22 13,15 19,38 19,68l0 110c0,31 -6,54 -19,69 -14,15 -34,22 -61,22l-81 0 0 -291 81 0z"/>
  <polygon id="1" class="fil1" points="20342,12247 20342,11956 20382,11956 20382,12247 "/>
  <path id="2" class="fil1" d="M20421 12247l72 -291 51 0 71 291 -41 0 -17 -74 -78 0 -17 74 -41 0zm66 -107l63 0 -32 -140 -31 140z"/>
  <polygon id="3" class="fil1" points="20657,12247 20657,11956 20697,11956 20697,12213 20784,12213 20784,12247 "/>
  <path id="4" class="fil1" d="M20997 11981c-14,0 -25,5 -31,14 -7,9 -10,24 -10,43l0 127c0,19 3,33 10,43 6,9 17,14 31,14 14,0 24,-5 31,-14 6,-10 10,-24 10,-43l0 -13 40 0 0 13c0,30 -7,53 -20,68 -13,15 -34,22 -61,22 -28,0 -48,-7 -61,-22 -14,-15 -20,-37 -20,-68l0 -127c0,-31 6,-54 20,-69 13,-14 33,-22 61,-22 27,0 48,8 61,23 13,14 20,37 20,68l0 4 -40 0 0 -4c0,-19 -3,-34 -10,-43 -7,-9 -17,-14 -31,-14z"/>
  <polygon class="fil1" points="21724,12247 21724,11956 21859,11956 21859,11990 21764,11990 21764,12078 21855,12078 21855,12112 21764,12112 21764,12247 "/>
  <path id="1" class="fil1" d="M21881 12247l71 -291 51 0 72 291 -41 0 -17 -74 -78 0 -17 74 -41 0zm65 -107l63 0 -31 -140 -32 140z"/>
  <path id="2" class="fil1" d="M22190 11947c52,0 77,26 77,77l0 15 -39 0 0 -15c0,-29 -13,-43 -38,-43 -12,0 -21,4 -28,10 -7,7 -11,17 -11,29l0 11c0,16 9,29 27,39l53 30c12,8 22,17 29,28 7,11 10,23 10,37l0 11c0,53 -27,79 -80,79 -54,0 -81,-26 -81,-79l0 -23 39 0 0 23c0,15 4,26 11,34 7,8 17,12 31,12 13,0 23,-4 30,-12 7,-8 11,-19 11,-34l0 -11c0,-14 -8,-25 -22,-33l-51 -29c-16,-9 -28,-19 -35,-31 -8,-11 -11,-25 -11,-41l0 -11c0,-23 6,-41 20,-54 14,-12 33,-19 58,-19z"/>
  <polygon id="3" class="fil1" points="22376,12247 22376,11990 22304,11990 22304,11956 22483,11956 22483,11990 22416,11990 22416,12247 "/>
  <polygon class="fil1" points="15547,15247 15547,15209 15664,14989 15551,14989 15551,14955 15705,14955 15705,14993 15588,15213 15709,15213 15709,15247 "/>
  <polygon id="1" class="fil1" points="15755,15247 15755,14955 15889,14955 15889,14989 15795,14989 15795,15077 15885,15077 15885,15111 15795,15111 15795,15213 15889,15213 15889,15247 "/>
  <path id="2" class="fil1" d="M16009 15122l-34 0 0 125 -40 0 0 -292 78 0c54,0 81,25 81,73l0 17c0,15 -4,27 -12,38 -8,10 -19,18 -33,22 14,3 25,10 31,20 7,10 10,24 10,42l0 51c0,4 1,10 2,16 1,6 3,10 4,13l-41 0c-1,-3 -2,-7 -3,-13 -1,-6 -2,-10 -2,-14l0 -55c0,-15 -3,-26 -9,-33 -7,-6 -17,-10 -32,-10zm4 -133l-38 0 0 99 38 0c28,0 41,-13 41,-41l0 -17c0,-27 -13,-41 -41,-41z"/>
  <path id="3" class="fil1" d="M16228 14947c27,0 47,7 61,22 13,15 19,38 19,69l0 127c0,30 -6,53 -19,68 -14,15 -34,22 -61,22 -28,0 -48,-7 -62,-22 -13,-15 -19,-38 -19,-68l0 -127c0,-31 6,-54 19,-69 14,-15 34,-22 62,-22zm0 34c-14,0 -25,5 -31,14 -7,9 -10,23 -10,43l0 127c0,19 3,33 10,42 6,10 17,14 31,14 14,0 24,-4 31,-14 6,-9 10,-23 10,-42l0 -127c0,-20 -4,-34 -10,-43 -7,-9 -17,-14 -31,-14z"/>
  <polygon id="4" class="fil1" points="16494,14955 16541,15057 16588,14955 16633,14955 16564,15095 16639,15247 16595,15247 16541,15133 16488,15247 16443,15247 16519,15095 16450,14955 "/>
  <polygon class="fil1" points="17063,15247 17063,15209 17180,14989 17067,14989 17067,14955 17221,14955 17221,14993 17104,15213 17225,15213 17225,15247 "/>
  <polygon id="1" class="fil1" points="17271,15247 17271,14955 17406,14955 17406,14989 17311,14989 17311,15077 17401,15077 17401,15111 17311,15111 17311,15213 17406,15213 17406,15247 "/>
  <path id="2" class="fil1" d="M17526 15122l-35 0 0 125 -40 0 0 -292 79 0c54,0 81,25 81,73l0 17c0,15 -4,27 -12,38 -8,10 -19,18 -33,22 14,3 24,10 31,20 6,10 9,24 9,42l0 51c0,4 1,10 2,16 2,6 3,10 5,13l-42 0c-1,-3 -2,-7 -3,-13 -1,-6 -2,-10 -2,-14l0 -55c0,-15 -3,-26 -9,-33 -6,-6 -17,-10 -31,-10zm4 -133l-39 0 0 99 39 0c27,0 41,-13 41,-41l0 -17c0,-27 -14,-41 -41,-41z"/>
  <path id="3" class="fil1" d="M17744 14947c27,0 48,7 61,22 13,15 20,38 20,69l0 127c0,30 -7,53 -20,68 -13,15 -34,22 -61,22 -28,0 -48,-7 -61,-22 -13,-15 -20,-38 -20,-68l0 -127c0,-31 7,-54 20,-69 13,-15 33,-22 61,-22zm0 34c-14,0 -24,5 -31,14 -7,9 -10,23 -10,43l0 127c0,19 3,33 10,42 7,10 17,14 31,14 14,0 24,-4 31,-14 7,-9 10,-23 10,-42l0 -127c0,-20 -3,-34 -10,-43 -7,-9 -17,-14 -31,-14z"/>
  <polygon id="4" class="fil1" points="17998,14955 18046,15090 18094,14955 18135,14955 18066,15132 18066,15247 18026,15247 18026,15132 17957,14955 "/>
  <polygon class="fil1" points="18564,15247 18564,15209 18681,14989 18569,14989 18569,14955 18722,14955 18722,14993 18606,15213 18727,15213 18727,15247 "/>
  <polygon id="1" class="fil1" points="18772,15247 18772,14955 18907,14955 18907,14989 18812,14989 18812,15077 18903,15077 18903,15111 18812,15111 18812,15213 18907,15213 18907,15247 "/>
  <path id="2" class="fil1" d="M19027 15122l-35 0 0 125 -40 0 0 -292 79 0c54,0 81,25 81,73l0 17c0,15 -4,27 -12,38 -8,10 -19,18 -33,22 14,3 24,10 31,20 6,10 10,24 10,42l0 51c0,4 0,10 1,16 2,6 3,10 5,13l-42 0c-1,-3 -2,-7 -3,-13 -1,-6 -1,-10 -1,-14l0 -55c0,-15 -4,-26 -10,-33 -6,-6 -17,-10 -31,-10zm4 -133l-39 0 0 99 39 0c27,0 41,-13 41,-41l0 -17c0,-27 -14,-41 -41,-41z"/>
  <path id="3" class="fil1" d="M19245 14947c28,0 48,7 61,22 13,15 20,38 20,69l0 127c0,30 -7,53 -20,68 -13,15 -33,22 -61,22 -27,0 -48,-7 -61,-22 -13,-15 -20,-38 -20,-68l0 -127c0,-31 7,-54 20,-69 13,-15 34,-22 61,-22zm0 34c-14,0 -24,5 -31,14 -7,9 -10,23 -10,43l0 127c0,19 3,33 10,42 7,10 17,14 31,14 14,0 24,-4 31,-14 7,-9 10,-23 10,-42l0 -127c0,-20 -3,-34 -10,-43 -6,-9 -17,-14 -31,-14z"/>
  <polygon id="4" class="fil1" points="19466,15247 19466,15209 19583,14989 19470,14989 19470,14955 19624,14955 19624,14993 19507,15213 19628,15213 19628,15247 "/>
  <polygon class="fil1" points="20058,15247 20058,15209 20175,14989 20062,14989 20062,14955 20216,14955 20216,14993 20099,15213 20220,15213 20220,15247 "/>
  <polygon id="1" class="fil1" points="20265,15247 20265,14955 20400,14955 20400,14989 20305,14989 20305,15077 20396,15077 20396,15111 20305,15111 20305,15213 20400,15213 20400,15247 "/>
  <path id="2" class="fil1" d="M20520 15122l-34 0 0 125 -40 0 0 -292 78 0c54,0 81,25 81,73l0 17c0,15 -4,27 -12,38 -8,10 -19,18 -33,22 14,3 24,10 31,20 6,10 10,24 10,42l0 51c0,4 0,10 2,16 1,6 3,10 4,13l-41 0c-1,-3 -2,-7 -3,-13 -2,-6 -2,-10 -2,-14l0 -55c0,-15 -3,-26 -10,-33 -6,-6 -16,-10 -31,-10zm4 -133l-38 0 0 99 38 0c27,0 41,-13 41,-41l0 -17c0,-27 -14,-41 -41,-41z"/>
  <path id="3" class="fil1" d="M20738 14947c28,0 48,7 61,22 14,15 20,38 20,69l0 127c0,30 -6,53 -20,68 -13,15 -33,22 -61,22 -27,0 -48,-7 -61,-22 -13,-15 -20,-38 -20,-68l0 -127c0,-31 7,-54 20,-69 13,-15 34,-22 61,-22zm0 34c-14,0 -24,5 -31,14 -6,9 -10,23 -10,43l0 127c0,19 4,33 10,42 7,10 17,14 31,14 14,0 25,-4 31,-14 7,-9 10,-23 10,-42l0 -127c0,-20 -3,-34 -10,-43 -6,-9 -17,-14 -31,-14z"/>
  <path id="4" class="fil1" d="M21052 14981c-14,0 -24,5 -31,14 -7,9 -10,23 -10,43l0 127c0,19 3,33 10,42 7,10 17,14 31,14 14,0 24,-4 31,-14 7,-9 10,-23 10,-42l0 -13 40 0 0 13c0,30 -7,53 -20,68 -13,15 -33,22 -61,22 -27,0 -48,-7 -61,-22 -13,-15 -20,-38 -20,-68l0 -127c0,-31 7,-54 20,-69 13,-15 34,-22 61,-22 28,0 48,7 61,22 13,15 20,38 20,69l0 4 -40 0 0 -4c0,-20 -3,-34 -10,-43 -6,-9 -17,-14 -31,-14z"/>
  <path class="fil1" d="M16834 5720l-154 0 -36 -262c-2,-18 -5,-38 -7,-61 -2,-23 -4,-47 -5,-74 -4,26 -12,57 -23,96 -2,8 -4,14 -5,18l-83 283 -110 0 -82 -283c-1,-4 -3,-10 -5,-18 -11,-39 -19,-70 -23,-96 -1,23 -3,46 -5,68 -2,23 -5,45 -8,67l-36 262 -153 0 93 -605 164 0 91 312c0,2 2,6 3,11 9,28 14,52 16,71 2,-10 3,-22 7,-35 3,-14 7,-29 12,-48l92 -311 164 0 93 605z"/>
  <path id="1" class="fil1" d="M17231 5511c0,-32 -9,-58 -26,-77 -18,-19 -41,-29 -71,-29 -31,0 -54,10 -71,29 -18,18 -26,44 -26,77 0,33 8,58 26,77 17,19 41,28 71,28 30,0 53,-9 71,-28 17,-19 26,-44 26,-77zm129 -208l0 417 -135 0 0 -67c-19,28 -41,50 -65,63 -24,14 -53,20 -85,20 -56,0 -100,-20 -134,-61 -33,-40 -50,-95 -50,-163 0,-68 18,-122 53,-163 34,-40 81,-60 140,-60 32,0 59,7 82,20 22,14 42,34 58,62l0 -68 136 0z"/>
  <path id="2" class="fil1" d="M17696 5255l1 2c9,18 16,34 19,48 3,-13 9,-28 19,-45 1,-2 2,-3 2,-5l73 -140 195 0 -202 291 224 314 -187 0 -103 -179c-5,-8 -9,-16 -12,-25 -4,-8 -7,-17 -9,-25 -2,9 -5,18 -9,27 -3,8 -7,16 -11,23l-104 179 -187 0 225 -317 -203 -288 196 0 73 140z"/>
  <path id="3" class="fil1" d="M18187 5720l0 -276 -212 -329 190 0 81 156c0,1 1,2 2,4 9,17 15,32 18,47 3,-14 9,-28 18,-45 2,-3 3,-5 3,-6l81 -156 190 0 -212 329 0 276 -159 0z"/>
  <path id="4" class="fil1" d="M18706 5513c0,32 9,58 26,77 17,18 40,28 70,28 30,0 53,-10 70,-28 18,-19 26,-45 26,-77 0,-33 -8,-58 -26,-77 -17,-19 -40,-28 -70,-28 -30,0 -53,9 -70,28 -17,19 -26,44 -26,77zm-130 392l0 -602 135 0 0 70c19,-28 40,-49 63,-63 24,-14 50,-21 78,-21 59,0 106,20 141,60 34,41 52,95 52,164 0,66 -18,120 -52,162 -35,41 -80,61 -136,61 -35,0 -64,-6 -86,-19 -22,-13 -42,-34 -59,-64 1,8 2,18 3,30 1,12 1,27 1,44l0 178 -140 0z"/>
  <path id="5" class="fil1" d="M19430 5513c0,-32 -8,-56 -24,-74 -15,-18 -37,-27 -63,-27 -27,0 -48,9 -64,27 -16,18 -23,42 -23,74 0,31 7,55 23,73 15,18 37,27 64,27 27,0 48,-9 64,-27 15,-18 23,-42 23,-73zm146 0c0,30 -5,58 -17,85 -12,27 -29,52 -51,73 -23,21 -48,38 -76,49 -28,11 -58,16 -89,16 -32,0 -62,-5 -90,-16 -28,-11 -53,-28 -75,-49 -22,-21 -39,-45 -51,-72 -11,-27 -17,-56 -17,-86 0,-31 6,-60 17,-87 12,-27 28,-51 51,-73 22,-21 46,-37 74,-48 28,-10 58,-16 91,-16 32,0 62,6 90,16 28,11 53,27 75,48 22,22 40,47 51,74 12,27 17,55 17,86z"/>
  <path id="6" class="fil1" d="M19622 5686l31 -113c21,19 45,33 71,43 26,10 52,15 78,15 18,0 32,-3 42,-9 10,-5 14,-14 14,-25 0,-19 -19,-33 -58,-42 -13,-3 -23,-5 -31,-8 -44,-12 -76,-28 -96,-47 -20,-20 -30,-46 -30,-77 0,-41 16,-73 46,-97 31,-25 72,-37 124,-37 27,0 54,3 82,10 27,6 56,15 84,28l-30 102c-20,-13 -40,-23 -60,-30 -20,-7 -40,-11 -60,-11 -17,0 -30,3 -38,8 -9,5 -13,13 -13,23 0,15 19,27 58,38 9,2 15,4 20,5 51,15 86,32 106,51 20,20 30,47 30,80 0,43 -16,78 -49,104 -33,26 -76,39 -130,39 -37,0 -71,-4 -102,-12 -32,-9 -61,-21 -89,-38z"/>
  <path id="7" class="fil1" d="M20067 5172c0,-22 8,-41 24,-56 16,-16 35,-24 58,-24 23,0 42,8 58,23 15,16 23,35 23,57 0,23 -8,43 -24,59 -16,16 -35,24 -57,24 -23,0 -42,-9 -58,-25 -16,-16 -24,-35 -24,-58zm8 548l0 -417 147 0 0 417 -147 0z"/>
  <polygon class="fil1" points="17503,14313 17554,14313 17590,14547 17622,14313 17663,14313 17618,14604 17566,14604 17529,14354 17491,14604 17439,14604 17394,14313 17435,14313 17467,14547 "/>
  <path id="1" class="fil1" d="M17783 14304c28,0 48,8 61,23 14,15 20,37 20,68l0 127c0,31 -6,53 -20,68 -13,15 -33,23 -61,23 -27,0 -48,-8 -61,-23 -13,-15 -20,-37 -20,-68l0 -127c0,-31 7,-54 20,-68 13,-15 34,-23 61,-23zm0 34c-14,0 -24,5 -31,14 -6,9 -10,24 -10,43l0 127c0,19 4,34 10,43 7,9 17,14 31,14 14,0 25,-5 31,-14 7,-9 10,-24 10,-43l0 -127c0,-19 -3,-34 -10,-43 -6,-9 -17,-14 -31,-14z"/>
  <path id="2" class="fil1" d="M17996 14480l-34 0 0 124 -40 0 0 -291 78 0c54,0 81,24 81,73l0 17c0,14 -3,27 -11,37 -8,11 -19,18 -34,23 15,3 25,9 31,19 7,10 10,24 10,42l0 51c0,5 1,10 2,16 1,6 3,11 5,13l-42 0c-1,-2 -2,-6 -3,-12 -1,-6 -2,-11 -2,-14l0 -56c0,-15 -3,-25 -9,-32 -7,-7 -17,-10 -32,-10zm4 -133l-38 0 0 99 38 0c28,0 42,-14 42,-41l0 -17c0,-28 -14,-41 -42,-41z"/>
  <polygon id="3" class="fil1" points="18134,14604 18134,14313 18174,14313 18174,14444 18256,14313 18298,14313 18212,14444 18307,14604 18261,14604 18174,14450 18174,14604 "/>
  <path id="4" class="fil1" d="M18418 14304c52,0 78,26 78,77l0 15 -40 0 0 -15c0,-29 -12,-43 -38,-43 -11,0 -20,4 -27,11 -7,6 -11,16 -11,28l0 11c0,16 9,29 27,40l52 30c13,7 23,16 30,27 7,11 10,23 10,37l0 11c0,53 -27,80 -81,80 -54,0 -81,-27 -81,-80l0 -23 40 0 0 23c0,15 4,26 11,34 7,8 17,12 30,12 14,0 24,-4 31,-12 7,-8 10,-19 10,-34l0 -11c0,-14 -7,-25 -22,-33l-50 -29c-16,-9 -28,-19 -36,-31 -7,-11 -11,-25 -11,-41l0 -11c0,-23 7,-41 21,-54 14,-12 33,-19 57,-19z"/>
  <path id="5" class="fil1" d="M18619 14446c14,0 24,-4 31,-11 6,-8 9,-19 9,-35l0 -8c0,-15 -3,-27 -9,-34 -7,-8 -17,-11 -31,-11l-30 0 0 99 30 0zm-70 158l0 -291 70 0c53,0 80,26 80,79l0 8c0,53 -27,80 -80,80l-30 0 0 124 -40 0z"/>
  <path id="6" class="fil1" d="M18729 14604l72 -291 50 0 72 291 -41 0 -17 -74 -78 0 -17 74 -41 0zm66 -107l62 0 -31 -140 -31 140z"/>
  <path id="7" class="fil1" d="M19046 14338c-14,0 -25,5 -31,14 -7,9 -10,24 -10,43l0 127c0,19 3,34 10,43 6,9 17,14 31,14 14,0 24,-5 31,-14 6,-9 10,-24 10,-43l0 -13 40 0 0 13c0,31 -7,53 -20,68 -14,15 -34,23 -61,23 -28,0 -48,-8 -61,-23 -14,-15 -20,-37 -20,-68l0 -127c0,-31 6,-54 20,-68 13,-15 33,-23 61,-23 27,0 47,8 61,23 13,15 20,37 20,68l0 4 -40 0 0 -4c0,-19 -4,-34 -10,-43 -7,-9 -17,-14 -31,-14z"/>
  <polygon id="8" class="fil1" points="19176,14604 19176,14313 19311,14313 19311,14347 19216,14347 19216,14435 19307,14435 19307,14469 19216,14469 19216,14570 19311,14570 19311,14604 "/>
  <rect class="fil2 str1" x="1000" y="2800" width="88.75" height="84.33"/>
 </g>
</svg>
